<svg width="128" height="128" viewBox="0 0 128 128" fill="none" xmlns="http://www.w3.org/2000/svg">
<circle cx="64" cy="64" r="64" fill="#65CFBB"/>
<mask id="mask0" mask-type="alpha" maskUnits="userSpaceOnUse" x="0" y="0" width="128" height="128">
<circle cx="64" cy="64" r="64" fill="#99082D"/>
</mask>
<g mask="url(#mask0)">
<path fill-rule="evenodd" clip-rule="evenodd" d="M21 32.9202C21 30.7551 22.7552 29 24.9202 29H103.325C105.49 29 107.245 30.7551 107.245 32.9202V95.6441C107.245 97.8088 105.49 99.5641 103.325 99.5641H24.9202C22.7552 99.5641 21 97.8088 21 95.6441V32.9202ZM28.8405 36.8405V48.6012H99.4045V36.8405H28.8405ZM99.4045 56.4416H28.8405V91.7234H99.4045V56.4416ZM36.6809 74.0826C36.6809 71.9175 38.4361 70.1624 40.6012 70.1624H44.5214C46.6865 70.1624 48.4416 71.9175 48.4416 74.0826C48.4416 76.2477 46.6865 78.0029 44.5214 78.0029H40.6012C38.4361 78.0029 36.6809 76.2477 36.6809 74.0826ZM52.3619 74.0826C52.3619 71.9175 54.117 70.1624 56.2821 70.1624H60.2023C62.3674 70.1624 64.1226 71.9175 64.1226 74.0826C64.1226 76.2477 62.3674 78.0029 60.2023 78.0029H56.2821C54.117 78.0029 52.3619 76.2477 52.3619 74.0826ZM68.0428 74.0826C68.0428 71.9175 69.7979 70.1624 71.963 70.1624H75.8832C78.0483 70.1624 79.8034 71.9175 79.8034 74.0826C79.8034 76.2477 78.0483 78.0029 75.8832 78.0029H71.963C69.7979 78.0029 68.0428 76.2477 68.0428 74.0826Z" fill="black"/>
</g>
</svg>
