<svg width="128" height="128" viewBox="0 0 128 128" fill="none" xmlns="http://www.w3.org/2000/svg">
<circle cx="64" cy="64" r="64" fill="#65CFBB"/>
<mask id="mask0" mask-type="alpha" maskUnits="userSpaceOnUse" x="0" y="0" width="128" height="128">
<circle cx="64" cy="64" r="64" fill="#99082D"/>
</mask>
<g mask="url(#mask0)">
</g>
<path d="M64.0002 15.4164C90.832 15.4164 112.584 37.1679 112.584 63.9997C112.584 90.8316 90.832 112.583 64.0002 112.583C37.1683 112.583 15.4168 90.8316 15.4168 63.9997C15.4168 37.1679 37.1683 15.4164 64.0002 15.4164ZM64.0002 24.2497C42.0468 24.2497 24.2502 42.0464 24.2502 63.9997C24.2502 85.9531 42.0468 103.75 64.0002 103.75C85.9535 103.75 103.75 85.9531 103.75 63.9997C103.75 42.0464 85.9535 24.2497 64.0002 24.2497ZM81.4337 75.5077C83.6154 76.5985 84.4997 79.2515 83.4089 81.4333C82.6246 83.0018 81.1365 85.1026 78.8042 87.1758C74.9274 90.6218 69.9726 92.708 64.0002 92.708C58.0276 92.708 53.0729 90.6218 49.1961 87.1758C46.8638 85.1026 45.3757 83.0018 44.5914 81.4333C43.5006 79.2515 44.3849 76.5985 46.5666 75.5077C48.5925 74.4947 51.0248 75.1849 52.2352 77.0354L52.4922 77.4828C52.8121 78.1227 53.6704 79.3343 55.0646 80.5737C57.3988 82.6484 60.3112 83.8747 64.0002 83.8747C67.6891 83.8747 70.6016 82.6484 72.9356 80.5737C74.1308 79.5113 74.9321 78.4694 75.338 77.7905L75.5081 77.4828C76.5989 75.3011 79.2519 74.4168 81.4337 75.5077ZM79.4584 46.333C81.7235 46.333 83.5903 48.038 83.8454 50.2346L83.8752 50.7497V52.958C83.8752 55.3973 81.8978 57.3747 79.4584 57.3747C77.1934 57.3747 75.3267 55.6697 75.0715 53.4731L75.0418 52.958V50.7497C75.0418 48.3105 77.0192 46.333 79.4584 46.333ZM48.5418 46.333C50.8068 46.333 52.6737 48.038 52.9288 50.2346L52.9584 50.7497V52.958C52.9584 55.3973 50.981 57.3747 48.5418 57.3747C46.2768 57.3747 44.41 55.6697 44.1549 53.4731L44.1252 52.958V50.7497C44.1252 48.3105 46.1026 46.333 48.5418 46.333Z" fill="black"/>
</svg>
