<svg width="159" height="159" viewBox="0 0 159 159" fill="none" xmlns="http://www.w3.org/2000/svg">
<path d="M0 79.5C0 35.5934 35.5934 0 79.5 0V0C123.407 0 159 35.5934 159 79.5V79.5C159 123.407 123.407 159 79.5 159V159C35.5934 159 0 123.407 0 79.5V79.5Z" fill="white"/>
<path fill-rule="evenodd" clip-rule="evenodd" d="M133.136 90.1C133.136 62.234 110.546 39.644 82.6798 39.644C54.8138 39.644 30.0894 62.2815 32.2238 90.1C34.7678 123.256 133.136 116.941 133.136 90.1Z" fill="#64FCD9"/>
<path d="M42.8489 89.4615C43.0139 89.4467 43.2293 89.4638 43.2761 89.6227C43.2776 89.8144 43.0347 89.8941 42.8444 89.9178C41.8189 90.0453 40.7933 90.1728 39.7677 90.3003C40.2445 90.7049 40.2918 91.5076 39.8885 91.9855C39.4852 92.4633 38.7144 92.5614 38.1866 92.2261C38.0106 92.1142 37.8606 91.9626 37.6756 91.8664C37.4906 91.7702 37.246 91.7416 37.0858 91.8751C36.7236 92.1768 36.1773 92.0953 35.7438 91.91C35.3142 91.7264 34.8902 91.4132 34.7902 90.9567C34.6911 90.5044 34.9381 90.0487 35.2302 89.6894C35.5223 89.3302 35.8751 89.0049 36.0506 88.5764C36.308 87.9479 37.0682 87.635 37.7415 87.7239C38.4149 87.8127 39.0044 88.2226 39.4948 88.6925C39.8106 88.9951 40.3228 88.8764 40.7403 88.7459C41.1577 88.6154 41.6819 88.519 41.9742 88.8442" fill="white"/>
<path fill-rule="evenodd" clip-rule="evenodd" d="M102.058 87.6965C102.058 82.9909 105.536 81.9065 107.743 81.9619C109.95 82.0174 112.055 83.4383 112.875 85.4201C113.694 87.4019 113.183 89.8307 111.633 91.3502C110.083 92.8697 106.81 92.8882 105.866 92.6017C104.923 92.3153 102.058 90.323 102.058 87.6965Z" fill="white"/>
<path fill-rule="evenodd" clip-rule="evenodd" d="M107.469 84.4437C108.261 84.3803 109.074 84.6692 109.649 85.2179C110.54 86.0682 110.769 87.5306 110.183 88.6131C109.596 89.6955 108.246 90.3015 107.047 90.0198C105.906 89.7515 104.991 88.706 104.878 87.539C104.764 86.3719 105.46 85.1697 106.528 84.6863C106.824 84.5521 107.144 84.4697 107.469 84.4437M108.843 84.9907C108.563 84.7847 108.255 84.6123 107.922 84.5457C107.542 84.47 107.145 84.5364 106.79 84.6974C105.886 85.1066 105.27 86.1667 105.329 87.2238C105.387 88.2809 106.122 89.2565 107.069 89.5261C108.017 89.7958 109.105 89.3332 109.622 88.4337C110.139 87.5342 110.039 86.2697 109.381 85.4843C109.223 85.2953 109.038 85.134 108.843 84.9907V84.9907Z" fill="#00160A"/>
<path fill-rule="evenodd" clip-rule="evenodd" d="M54.4698 88.0333C54.4501 87.7267 54.4525 87.417 54.5067 87.1146C54.5478 86.8852 54.6182 86.6624 54.6884 86.4402C54.8399 85.9612 54.9919 85.4809 55.1995 85.0235C56.217 82.7811 58.6495 81.2622 61.1112 81.3262C63.5728 81.3901 65.9208 83.0296 66.8345 85.3163C67.7482 87.603 67.1789 90.4055 65.4497 92.1588C63.7206 93.912 60.9305 94.5207 58.6261 93.6527C56.3216 92.7848 54.6276 90.4907 54.4698 88.0333" fill="white"/>
<path fill-rule="evenodd" clip-rule="evenodd" d="M61.0732 60.3287C61.0858 61.3021 60.8371 62.3431 61.2874 63.2062C62.1216 64.8051 64.4643 64.5079 66.1876 63.9763C64.7713 62.3644 63.355 60.7524 61.9387 59.1404C64.8727 56.1447 67.8068 53.1489 70.7408 50.1531C70.9855 49.9034 71.2679 49.6364 71.6174 49.6296C72.0206 49.6218 72.3358 49.959 72.594 50.2687C73.5551 51.4214 74.5161 52.5742 75.4772 53.727C76.269 54.6768 77.023 56.2151 76.0537 56.983C79.6898 56.7363 83.3259 56.4895 86.962 56.2428C86.2811 52.3538 87.5322 47.567 88.7674 43.8171C88.8905 43.4433 89.0394 43.0368 89.3809 42.8413C89.6201 42.7043 89.9097 42.6988 90.1854 42.6969C96.8239 42.6511 103.462 42.6053 110.101 42.5596C110.503 42.5568 110.927 42.5596 111.275 42.762C111.573 42.9357 111.774 43.2336 111.962 43.5228C117.578 52.157 121.085 63.0009 122.093 73.2515C122.219 74.5373 123.867 83.7451 122.093 84.0182C113.644 85.3188 115.3 77.6611 106.376 78.7813C99.044 79.7018 100.429 84.0182 96.1916 84.8593C92.3849 85.6148 79.4007 85.8025 75.1918 86.0133C69.4178 86.3025 69.0098 77.5738 60.2168 77.9284C51.4238 78.2831 51.6251 88.267 46.8881 87.1241C46.6906 87.0765 44.5459 85.829 44.4975 85.6796C43.7995 83.5223 43.2761 75.6261 43.2761 75.6261L41.6225 75.2589C41.6225 75.2589 41.501 71.1826 41.6225 71.0524C41.8366 70.823 45.5849 71.2345 47.2071 71.0524C46.7279 67.7243 46.2486 64.3962 45.7694 61.0682C45.728 60.7808 45.6922 60.465 45.8484 60.2202C46.0221 59.9481 46.3708 59.858 46.6868 59.792C50.9142 58.9088 55.216 58.3819 59.5315 58.2186C60.5044 58.1818 61.0606 59.3552 61.0732 60.3287Z" fill="white"/>
<path fill-rule="evenodd" clip-rule="evenodd" d="M52.5426 69.4086L50.6396 69.5441L49.5699 59.2491L51.2363 58.9751L52.5426 69.4086Z" fill="#FFB61D"/>
<path fill-rule="evenodd" clip-rule="evenodd" d="M97.4845 49.7999C97.9999 49.7008 107.886 56.5616 107.784 56.6729C107.681 56.7843 97.2806 49.8391 97.4845 49.7999Z" fill="#E7EAEE"/>
<path fill-rule="evenodd" clip-rule="evenodd" d="M101.725 49.7999C102.124 49.7287 107.191 53.1546 107.051 53.3541C106.91 53.5537 101.469 49.8454 101.725 49.7999Z" fill="#E7EAEE"/>
<path fill-rule="evenodd" clip-rule="evenodd" d="M96.4245 51.9203C96.2323 51.5807 101.903 55.5043 101.75 55.4745C100.289 55.1889 96.4809 52.0199 96.4245 51.9203Z" fill="#E7EAEE"/>
<path fill-rule="evenodd" clip-rule="evenodd" d="M95.7545 62.9893C95.8789 63.0876 95.8279 63.3109 95.6875 63.3844C95.547 63.4579 95.3683 63.4089 95.2441 63.3104C94.8701 63.0138 94.9477 62.3852 95.2752 62.0379C95.6027 61.6907 96.0887 61.5523 96.5496 61.4285C96.7409 61.3771 96.9321 61.3257 97.1233 61.2743C97.5136 61.1695 97.9284 61.0647 98.3155 61.1807C98.7026 61.2966 99.025 61.7258 98.8747 62.1009C98.7802 62.3369 98.5303 62.4797 98.2801 62.5249C98.0299 62.57 97.7733 62.5357 97.5197 62.5184C97.0215 62.4845 96.5188 62.5171 96.0292 62.6152C95.9331 62.6345 95.8318 62.6593 95.763 62.7291C95.6943 62.7989 95.6776 62.9286 95.7545 62.9893Z" fill="#00160A"/>
<path fill-rule="evenodd" clip-rule="evenodd" d="M98.2629 84.3729C98.1335 84.9085 98.004 85.444 97.8745 85.9796C97.8349 86.1432 97.7912 86.3147 97.6764 86.4379C97.5057 86.6212 97.2294 86.6473 96.9793 86.6617C89.1091 87.1126 81.2328 87.4575 73.3532 87.6962C72.8205 87.7123 72.3185 87.4085 71.9689 87.0062C71.6192 86.604 71.3968 86.1096 71.1793 85.623C71.5238 85.5398 71.8501 85.8138 72.0599 86.0994C72.2697 86.3851 72.4544 86.7222 72.7804 86.8612C72.9948 86.9526 73.2372 86.9417 73.47 86.9292C81.1218 86.5183 88.7736 86.1075 96.4254 85.6966C96.7011 85.6818 97.0004 85.6577 97.2052 85.4725C97.416 85.2821 97.4666 84.9767 97.59 84.7208C97.7134 84.4649 98.0167 84.2313 98.2629 84.3729L98.2629 84.3729Z" fill="#00160A"/>
<path fill-rule="evenodd" clip-rule="evenodd" d="M39.3892 88.9478C39.0171 88.5504 38.5468 88.2456 38.032 88.0685C37.6825 87.9483 37.2821 87.8906 36.9539 88.0607C36.6257 88.2307 36.4427 88.7001 36.6735 88.9888C36.795 89.1407 36.5208 89.2846 36.3308 89.3263C35.763 89.4508 35.3346 90.0802 35.4955 90.6387C35.6564 91.1973 36.4376 91.4885 36.8883 91.1214C37.0514 90.9884 37.1608 90.7944 37.3376 90.6802C37.5144 90.5661 37.8123 90.5902 37.8667 90.7935C37.9813 91.2221 38.3722 91.5627 38.8124 91.6177C39.0999 91.6536 39.4402 91.5362 39.5293 91.2605C39.6871 90.7721 38.9667 90.2661 39.212 89.8151C39.3357 89.5877 39.635 89.5387 39.8928 89.5155C40.8782 89.4269 41.8635 89.3382 42.8489 89.2496C43.0139 89.2348 43.2293 89.2518 43.276 89.4108C43.2776 89.6025 43.0346 89.6822 42.8444 89.7058C41.8188 89.8333 40.7933 89.9609 39.7677 90.0884C40.2445 90.493 40.2918 91.2957 39.8885 91.7735C39.4852 92.2514 38.7144 92.3495 38.1866 92.0141C38.0106 91.9023 37.8606 91.7506 37.6756 91.6544C37.4906 91.5583 37.246 91.5297 37.0858 91.6632C36.7236 91.9648 36.1773 91.8834 35.7438 91.6981C35.3142 91.5145 34.8902 91.2012 34.7902 90.7448C34.6911 90.2925 34.9381 89.8368 35.2302 89.4775C35.5223 89.1182 35.8751 88.7929 36.0506 88.3645C36.308 87.736 37.0682 87.4231 37.7415 87.5119C38.4149 87.6008 39.0044 88.0107 39.4948 88.4806C39.8106 88.7832 40.3228 88.6644 40.7403 88.534C41.1577 88.4035 41.6818 88.3071 41.9742 88.6323C41.3723 88.769 40.7704 88.9057 40.1685 89.0423C39.9006 89.1032 39.5769 89.1484 39.3892 88.9478Z" fill="#E7EAEE"/>
<path fill-rule="evenodd" clip-rule="evenodd" d="M51.4404 88.3653C51.4113 87.9134 51.4148 87.457 51.4947 87.0113C51.5553 86.6733 51.6591 86.3448 51.7626 86.0173C51.9858 85.3114 52.2098 84.6035 52.5158 83.9293C54.0156 80.6242 57.6008 78.3857 61.2289 78.4799C64.8571 78.5741 68.3177 80.9906 69.6644 84.3609C71.0111 87.7312 70.1719 91.8616 67.6234 94.4457C65.0749 97.0298 60.9626 97.9269 57.5662 96.6476C54.1697 95.3684 51.6729 91.9872 51.4404 88.3653M53.3437 84.9846C53.1824 85.4133 53.0566 85.8628 53.0571 86.3209C53.0586 87.7256 53.1693 89.1507 53.6461 90.472C54.6483 93.2491 57.3498 95.328 60.2899 95.5966C63.23 95.8652 66.2584 94.3154 67.77 91.7794C69.2815 89.2433 69.2064 85.8491 67.5936 83.3763C65.9807 80.9035 62.9119 79.4673 59.9786 79.8019C57.0453 80.1366 54.3829 82.2212 53.3437 84.9846H53.3437Z" fill="#00160A"/>
<path fill-rule="evenodd" clip-rule="evenodd" d="M110.758 79.7939C113.833 81.0867 115.974 84.3414 115.944 87.6776C115.913 91.0137 113.712 94.2283 110.613 95.4642C107.514 96.7 103.706 95.8819 101.387 93.4825C99.0693 91.083 98.383 87.2483 99.7249 84.1938C100.042 83.4715 100.472 82.7818 101.082 82.2816C102.465 81.1479 103.896 79.9897 105.607 79.4684C107.286 78.9567 109.139 79.1137 110.758 79.7939M103.604 81.4086C103.2 81.6667 102.818 81.9682 102.519 82.3432C102.204 82.7398 101.99 83.2062 101.779 83.6674C101.464 84.3588 101.147 85.0541 100.95 85.7881C100.273 88.3103 101.188 91.1845 103.189 92.8626C105.19 94.5406 108.171 94.9428 110.551 93.8685C112.931 92.7942 114.599 90.3023 114.698 87.6927C114.798 85.0832 113.332 82.4775 111.058 81.1946C108.783 79.9117 105.804 80.0022 103.604 81.4086V81.4086Z" fill="#00160A"/>
<path fill-rule="evenodd" clip-rule="evenodd" d="M108.039 45.5525C102.705 45.6661 97.3701 45.7797 92.0357 45.8932C91.9026 45.8961 91.755 45.9048 91.6617 45.9998C91.6015 46.0612 91.5758 46.1477 91.5531 46.2306C90.3702 50.5448 91.3284 55.1156 92.1321 59.5163C92.6332 62.2598 93.0725 65.0147 93.4495 67.778C93.721 69.7679 93.9607 71.7691 93.9439 73.7774C93.9386 74.4159 94.3873 74.9931 94.9465 75.3016C95.5057 75.6101 96.1598 75.6934 96.7976 75.7243C98.1414 75.7895 99.495 75.6466 100.795 75.3023C101.038 75.2381 101.289 75.1665 101.535 75.2126C101.781 75.2586 102.018 75.4656 102.003 75.7156C101.986 76.0048 101.673 76.171 101.4 76.2681C99.683 76.8789 97.7982 77.0102 96.0131 76.6433C95.1566 76.4672 94.2636 76.135 93.7726 75.4114C93.4934 74.9998 93.3741 74.5033 93.2654 74.0179C92.1719 69.1342 91.626 64.1467 91.0928 59.1706C90.6083 54.6483 90.1322 50.0907 90.5385 45.5607C90.5511 45.4207 90.5664 45.2751 90.6407 45.1558C90.8 44.8999 91.1519 44.8651 91.4532 44.8577C97.0958 44.7192 102.738 44.5806 108.381 44.442C108.701 44.4342 109.045 44.433 109.309 44.614C109.504 44.7475 109.625 44.9613 109.74 45.1676C111.786 48.84 113.831 52.5123 115.877 56.1847C116.286 56.9194 116.709 57.7634 116.454 58.565C116.265 59.1594 115.727 59.5906 115.142 59.8079C114.558 60.0252 113.924 60.0606 113.301 60.0939C112.183 60.1535 111.065 60.2132 109.947 60.2729C107.185 60.4203 104.423 60.5677 101.661 60.7151C101.502 60.7236 101.325 60.7257 101.208 60.6187C101.037 60.4625 101.111 60.1572 101.294 60.0146C101.476 59.872 101.721 59.8471 101.952 59.8276C106.12 59.4761 110.288 59.1246 114.456 58.7731C114.783 58.7456 115.009 58.4026 115.024 58.0751C115.039 57.7476 114.897 57.4357 114.757 57.1391C112.951 53.3018 110.996 49.5349 108.897 45.8497C108.74 45.5726 108.358 45.5457 108.039 45.5525V45.5525Z" fill="#00160A"/>
<path fill-rule="evenodd" clip-rule="evenodd" d="M57.7326 82.4007C59.5968 81.369 62.0219 81.4896 63.8167 82.6378C65.6115 83.786 66.7298 85.8924 66.7533 88.023C66.7772 90.193 65.6009 92.4162 63.6356 93.3369C62.9505 93.6578 62.1954 93.8176 61.4394 93.8471C58.6845 93.9546 55.9279 92.143 55.0451 89.5311C54.1624 86.9192 55.3204 83.7358 57.7326 82.4007M61.9877 92.9138C62.712 92.7931 63.4157 92.5346 64.0317 92.1351C64.6631 91.7256 65.1983 91.169 65.5828 90.5222C66.5838 88.8385 66.4558 86.5771 65.3448 84.9639C64.2339 83.3507 62.2244 82.4303 60.2693 82.5497C59.5405 82.5942 58.817 82.7734 58.1655 83.1031C55.9172 84.2406 54.8847 87.2428 55.8361 89.576C56.7874 91.9092 59.5023 93.3281 61.9877 92.9138L61.9877 92.9138Z" fill="#00160A"/>
<path fill-rule="evenodd" clip-rule="evenodd" d="M77.2321 78.6471C76.9076 78.3587 76.3894 78.3735 76.0731 78.0762C76.1622 77.7539 76.4598 77.5421 76.6688 77.2809C77.1626 76.6635 77.1108 75.6779 76.5548 75.1157C76.2736 74.8314 75.8656 74.6136 75.7913 74.2207C76.3725 74.1208 76.9601 73.9334 77.3978 73.538C77.8355 73.1427 78.0893 72.5019 77.897 71.9443C77.838 71.7731 77.7391 71.6096 77.7368 71.4285C77.7345 71.2473 77.892 71.0468 78.0661 71.0965C78.9987 71.3626 80.0889 70.7424 80.3366 69.8048C80.443 69.402 81.0357 69.4417 81.4078 69.6291C81.7799 69.8166 82.2539 70.0535 82.5701 69.7823C82.8378 69.5526 82.8868 69.0193 83.2394 69.0259C83.422 69.0294 83.5512 69.1957 83.6785 69.3266C84.1176 69.7779 84.8481 69.9147 85.4207 69.6528C85.621 69.5612 85.8064 69.425 86.0239 69.3899C86.2413 69.3549 86.5092 69.4773 86.5231 69.6971C86.5654 70.362 87.2917 70.8929 87.9381 70.7313C88.1848 70.6697 88.6035 70.683 88.5199 70.9232C88.2649 71.6563 88.8102 72.5543 89.5783 72.666C89.7738 72.6945 89.9817 72.6808 90.1586 72.7688C90.3355 72.8568 90.4527 73.1078 90.3197 73.2539C89.7482 73.8812 89.9895 75.0447 90.7633 75.3931C90.9719 75.487 90.9227 75.8125 90.7648 75.978C90.607 76.1435 90.3794 76.2441 90.2639 76.4415C90.0631 76.7847 90.3022 77.2223 90.594 77.4924C90.8857 77.7626 91.2525 77.9896 91.3893 78.363C90.8399 78.1532 90.1593 78.3692 89.8314 78.8573C89.5034 79.3455 89.5608 80.0573 89.9628 80.4866C89.7505 80.8682 89.1834 80.7163 88.7484 80.7546C88.2193 80.8012 87.7561 81.2593 87.7037 81.788C87.6809 82.018 87.7263 82.2592 87.6444 82.4753C87.5625 82.6915 87.2636 82.8477 87.1001 82.6843C86.4923 82.0767 85.3294 82.1989 84.8612 82.9196C84.75 83.0907 84.6404 83.3097 84.4372 83.3282C84.1172 83.3572 84.0148 82.8946 83.7544 82.7065C83.4314 82.4733 82.9729 82.7378 82.7458 83.0651C82.5187 83.3924 82.3769 83.8013 82.0427 84.0181C81.4079 83.552 81.6004 82.2324 80.8202 82.1246C80.4834 82.078 80.1868 82.328 79.8678 82.4459C79.5489 82.5638 79.0572 82.4063 79.1168 82.0715C79.2143 81.5237 79.1319 80.7936 78.5939 80.6516C78.063 80.5114 77.3837 81.0635 77.0173 80.6546C77.4144 80.0344 77.7826 79.1362 77.2321 78.6471M77.5858 75.2366C77.3421 75.6779 77.3865 76.2134 77.341 76.7155C77.2955 77.2175 77.0846 77.7844 76.6027 77.9324C77.1474 77.9711 77.6571 78.332 77.8745 78.833C78.0919 79.334 78.0073 79.9528 77.6635 80.3771C78.1098 80.0426 78.7908 80.14 79.1959 80.5233C79.6011 80.9066 79.7464 81.5114 79.6638 82.063C80.1231 81.7348 80.7705 81.6932 81.2679 81.9599C81.7654 82.2267 82.089 82.7889 82.0698 83.3531C82.2068 82.8526 82.6002 82.415 83.1021 82.2833C83.6041 82.1516 84.193 82.3659 84.4456 82.8192C84.4688 82.4776 84.7912 82.2356 85.1082 82.1061C85.7873 81.8285 86.5835 81.8527 87.2445 82.171C87.1638 81.1053 88.2781 80.1272 89.3244 80.3455C88.997 80.004 89.0155 79.4482 89.1974 79.0114C89.4266 78.4609 89.9635 77.9813 90.5565 78.0445C90.2121 77.9184 89.9342 77.6237 89.8285 77.2726C89.6513 76.6835 89.9741 76.0263 90.476 75.6707C89.8424 75.5376 89.6384 74.7498 89.56 74.1072C89.5191 73.7723 89.5389 73.3335 89.8587 73.2259C89.1988 73.0394 88.603 72.6334 88.1882 72.0875C87.9962 71.835 87.8588 71.4363 88.1026 71.2333C87.5967 71.207 87.0977 71.0553 86.6628 70.7956C86.3318 70.5979 86.0062 70.2356 86.1317 69.871C85.2462 70.3086 84.1307 70.2391 83.3062 69.6951C83.0571 70.0871 82.5686 70.2771 82.1041 70.2754C81.6397 70.2737 81.1922 70.1082 80.7669 69.9214C80.8172 70.2287 80.61 70.5176 80.3852 70.7331C79.8138 71.281 79.0455 71.6192 78.2554 71.6706C78.6069 72.879 77.6703 74.2895 76.4201 74.4345C76.7221 74.8043 77.1365 75.0749 77.5858 75.2366Z" fill="#00160A"/>
<path fill-rule="evenodd" clip-rule="evenodd" d="M108.307 92.5548C107.516 92.6628 106.699 92.5859 105.942 92.3318C103.54 91.5263 101.969 88.779 102.494 86.3004C103.019 83.8217 105.569 81.9472 108.091 82.1849C110.614 82.4226 112.768 84.7405 112.821 87.2735C112.874 89.8066 110.818 92.2122 108.307 92.5548M110.12 91.4845C111.808 90.4602 112.734 88.3183 112.325 86.387C111.916 84.4557 110.2 82.8737 108.242 82.622C106.284 82.3703 104.224 83.467 103.34 85.232C102.455 86.9971 102.81 89.3036 104.184 90.7214C105.683 92.2685 108.279 92.6022 110.12 91.4845Z" fill="#00160A"/>
<path fill-rule="evenodd" clip-rule="evenodd" d="M83.6464 70.3573C85.7999 70.3327 87.9165 71.6147 88.8922 73.5346C89.8679 75.4546 89.6556 77.9201 88.3662 79.6451C87.0768 81.37 84.7722 82.2715 82.6546 81.8793C80.7841 81.5328 79.1238 80.2057 78.3737 78.4575C77.6236 76.7092 77.8059 74.5916 78.8437 72.9972C79.8816 71.4029 81.7442 70.379 83.6464 70.3573M89.1409 75.8149C89.0869 74.9572 88.8249 74.1133 88.3838 73.3758C87.0386 71.1269 83.9211 70.1425 81.5285 71.2111C79.1358 72.2797 77.7882 75.2582 78.565 77.7608C79.3419 80.2635 82.1393 81.9553 84.7165 81.4811C87.2937 81.0069 89.3057 78.4302 89.1409 75.8149V75.8149Z" fill="#00160A"/>
<path fill-rule="evenodd" clip-rule="evenodd" d="M86.659 76.182C86.2523 76.657 85.6019 76.9112 84.981 76.8379C84.7662 76.8126 84.4348 76.8662 84.4925 77.0746C85.2265 77.3326 85.9606 77.5906 86.6946 77.8486C87.1012 77.9915 87.2176 78.5757 86.9757 78.9323C86.7338 79.2889 86.2554 79.4222 85.8277 79.3696C85.4 79.3169 85.0085 79.1112 84.628 78.9091C84.2443 78.7053 83.8607 78.5015 83.477 78.2977C83.9947 78.093 84.5562 78.4071 85.0468 78.6702C85.5375 78.9332 86.1888 79.1386 86.6097 78.7742C86.6734 78.719 86.7298 78.6482 86.7411 78.5647C86.7683 78.3651 86.5462 78.2321 86.3596 78.1562C85.7699 77.9162 85.1803 77.6763 84.5906 77.4363C84.2928 77.3152 83.9423 77.4203 83.687 77.6157C83.4318 77.8112 83.2505 78.0849 83.0654 78.3478C82.6738 78.904 82.2019 79.463 81.5485 79.6523C80.8951 79.8417 80.0468 79.4721 79.9797 78.7951C79.9375 78.3696 80.2045 77.9715 80.5209 77.6838C80.8373 77.3961 81.2137 77.1756 81.5034 76.8611C81.54 76.8214 81.5768 76.7765 81.5813 76.7227C81.5907 76.6105 81.4645 76.5414 81.3589 76.5025C80.7897 76.2924 80.2204 76.0823 79.6511 75.8723C79.4049 75.7814 79.5581 75.3562 79.8186 75.3246C80.0791 75.2931 80.3076 75.4815 80.5158 75.6413C81.0651 76.0628 81.8268 76.3582 82.4402 76.0369C82.8775 75.8077 83.1292 75.2709 83.0257 74.7882C82.8845 74.1303 83.1314 73.4039 83.6442 72.9682C84.157 72.5325 84.9138 72.4062 85.5403 72.6518C85.062 72.8768 84.8439 73.5298 85.0908 73.997C85.3378 74.4643 86.0002 74.6519 86.4555 74.3835C86.6224 74.2851 86.8443 74.1399 86.9789 74.2793C87.0162 74.318 87.034 74.3712 87.0485 74.423C87.2166 75.0253 87.0657 75.7071 86.659 76.182ZM83.5877 74.3506C83.586 75.0702 83.9898 75.8112 84.6574 76.0799C85.325 76.3486 86.2105 76.0159 86.4281 75.33C86.4765 75.1773 86.3935 74.9318 86.2476 74.9978C85.8497 75.178 85.3806 74.9697 85.0446 74.6907C84.8256 74.5088 84.6272 74.2863 84.5437 74.0143C84.4601 73.7422 84.5147 73.414 84.7327 73.2311C84.3907 73.1545 84.0096 73.2977 83.8027 73.5805C83.6426 73.7992 83.5883 74.0796 83.5877 74.3506ZM80.6873 78.8859C81.5561 79.7448 82.0732 78.6195 82.2835 78.378C82.771 77.818 83.2879 77.2835 83.8312 76.7775C83.938 76.678 83.9419 76.5032 83.8799 76.3711C83.8179 76.239 83.7043 76.1395 83.5939 76.0441C83.4294 75.9021 83.1647 75.9428 82.9933 76.0763C82.8218 76.2098 79.8186 78.027 80.6873 78.8859Z" fill="#FFB61D"/>
<path fill-rule="evenodd" clip-rule="evenodd" d="M60.6168 84.868C61.4088 84.8046 62.2226 85.0935 62.7972 85.6422C63.6876 86.4925 63.9175 87.9549 63.331 89.0374C62.7445 90.1198 61.3937 90.7258 60.1952 90.4441C59.0538 90.1759 58.1395 89.1303 58.0259 87.9633C57.9123 86.7963 58.6078 85.594 59.676 85.1106C59.9726 84.9765 60.2924 84.894 60.6168 84.868M61.9913 85.7596C61.711 85.569 61.4029 85.4094 61.0696 85.3479C60.6905 85.2778 60.2934 85.3393 59.9378 85.4882C59.034 85.8669 58.4178 86.8478 58.4767 87.826C58.5356 88.8042 59.2698 89.7069 60.2175 89.9564C61.1652 90.2059 62.253 89.7779 62.7702 88.9456C63.2874 88.1132 63.1866 86.9431 62.5292 86.2164C62.3711 86.0415 62.1862 85.8923 61.9913 85.7596V85.7596Z" fill="#00160A"/>
<path fill-rule="evenodd" clip-rule="evenodd" d="M61.0732 59.0568C61.0858 60.0303 60.837 61.0713 61.2874 61.9344C62.1216 63.5332 64.4643 63.2361 66.1876 62.7045C64.7713 61.0925 63.355 59.4806 61.9387 57.8686C64.8727 54.8728 67.8068 51.8771 70.7408 48.8813C70.9854 48.6315 71.2679 48.3646 71.6174 48.3578C72.0206 48.3499 72.3358 48.6872 72.594 48.9969C73.555 50.1496 74.5161 51.3024 75.4772 52.4552C76.269 53.4049 77.023 54.9433 76.0537 55.7112C79.6898 55.4644 83.3259 55.2177 86.9619 54.971C86.2811 51.082 87.5322 47.1432 88.7674 43.3932C88.8905 43.0195 89.0394 42.613 89.3809 42.4174C89.6201 42.2805 89.9097 42.275 90.1853 42.2731C96.8239 42.2273 103.462 42.1815 110.101 42.1357C110.503 42.133 110.927 42.1358 111.275 42.3382C111.573 42.5119 111.774 42.8097 111.962 43.099C117.578 51.7331 121.085 61.7291 122.093 71.9797C122.219 73.2655 122.358 74.6704 123.265 75.5899C124.647 76.9898 124.796 79.4292 123.594 80.9865C124.478 81.6276 124.26 83.1079 123.45 83.8407C122.641 84.5735 121.492 84.7607 120.411 84.9166C118.977 85.1235 117.418 85.3081 116.164 84.582C118.217 84.1009 120.273 83.6311 122.331 83.1727C121.418 77.1606 120.505 71.1485 119.592 65.1364C119.291 63.1538 118.988 61.1643 118.427 59.2391C117.823 57.166 116.926 55.1921 116.032 53.2264C114.624 50.1306 113.216 47.0347 111.808 43.9389C111.655 43.6015 111.488 43.2483 111.186 43.0342C110.819 42.775 110.336 42.7756 109.887 42.7863C103.638 42.9351 97.388 43.0838 91.1384 43.2326C90.7781 43.2412 90.3898 43.2593 90.1066 43.4825C89.8738 43.666 89.7556 43.9557 89.6537 44.2342C87.1927 50.9585 88.6343 58.4075 90.1019 65.416C90.3716 66.7035 88.6226 67.3613 87.3121 67.4762C72.3513 68.7878 57.3905 70.0994 42.4298 71.4109C42.2462 72.5971 42.1944 73.8036 42.2757 75.0011C43.2714 75.0886 44.2671 75.1762 45.2628 75.2637C44.947 75.388 44.6312 75.5123 44.3154 75.6366C44.9041 78.7307 45.2295 81.8749 45.287 85.024C45.3045 85.9823 46.1352 86.7709 47.0502 87.0566C47.9651 87.3422 48.9504 87.236 49.9027 87.1269C48.889 87.5514 47.8327 87.9837 46.7351 87.9299C45.6374 87.8761 44.4881 87.1839 44.2855 86.1038C43.6503 82.7167 43.2844 79.2792 43.1926 75.8343C42.6157 75.8484 42.0389 75.8624 41.462 75.8764C41.267 74.4349 41.1885 72.9777 41.2275 71.5235C41.2359 71.2106 41.2612 70.8688 41.4748 70.6399C41.6889 70.4105 42.0286 70.362 42.3404 70.327C43.9627 70.1448 45.5849 69.9627 47.2071 69.7806C46.7279 66.4525 46.2486 63.1244 45.7694 59.7963C45.728 59.509 45.6922 59.1932 45.8484 58.9484C46.0221 58.6763 46.3708 58.5862 46.6868 58.5202C50.9142 57.637 55.2159 57.11 59.5315 56.9468C60.5044 56.91 61.0606 58.0834 61.0732 59.0568ZM47.8192 69.4448C47.8299 69.5392 47.8461 69.6438 47.9206 69.7028C47.9929 69.7602 48.0952 69.7543 48.1871 69.7456C52.4317 69.3425 56.6763 68.9395 60.9209 68.5364C61.0381 68.5253 61.1715 68.5048 61.2355 68.406C61.2856 68.3285 61.2753 68.2281 61.2631 68.1366C60.8293 64.8798 60.3956 61.623 59.9618 58.3661C59.9499 58.2767 59.9353 58.1813 59.8748 58.1144C59.7935 58.0244 59.6579 58.0151 59.5366 58.0124C55.3426 57.9207 51.1374 58.3479 47.0476 59.2815C46.9362 59.3069 46.8143 59.3397 46.7507 59.4345C46.6911 59.5234 46.7009 59.6399 46.713 59.7462C47.0817 62.9791 47.4505 66.2119 47.8192 69.4448ZM87.3104 56.4246C87.2922 56.2736 87.2607 56.1012 87.1295 56.0243C87.0459 55.9752 86.9426 55.9792 86.8458 55.9847C83.0668 56.198 79.2878 56.4114 75.5088 56.6247C75.4256 56.6294 75.3357 56.6367 75.2727 56.6914C75.1808 56.7712 75.1861 56.9128 75.1989 57.0338C75.5448 60.2965 75.8907 63.5592 76.2366 66.822C76.2475 66.9247 76.2623 67.036 76.3355 67.109C76.4295 67.2028 76.5807 67.197 76.7129 67.1849C80.634 66.8255 84.555 66.466 88.476 66.1065C88.0875 62.8792 87.6989 59.6519 87.3104 56.4246ZM67.0109 61.922C67.066 61.9721 67.1262 62.0246 67.2002 62.0333C67.3047 62.0456 67.3959 61.9678 67.4722 61.8953C70.0268 59.4675 73.0053 57.4636 75.5599 55.0358C75.6749 54.9264 75.7988 54.7967 75.7935 54.638C75.7899 54.5317 75.7277 54.4375 75.6674 54.3499C74.6493 52.8683 73.1429 51.0068 72.0006 49.6188C71.8883 49.4824 71.7435 49.333 71.5683 49.3552C71.4566 49.3694 71.3673 49.4516 71.2862 49.5297C68.4645 52.2482 65.6427 54.9666 62.821 57.6851C62.7581 57.7456 62.6907 57.8167 62.6919 57.9039C62.6931 57.9913 62.7627 58.0606 62.8274 58.1194C64.2219 59.3869 65.6164 60.6545 67.0109 61.922ZM75.1764 63.2566C75.1546 63.1167 75.1236 62.9614 75.008 62.8796C74.9053 62.807 74.768 62.8159 74.6429 62.8278C70.7367 63.1998 66.8306 63.5717 62.9244 63.9436C62.7203 63.9631 62.4809 64.0057 62.3921 64.1906C62.3431 64.2923 62.3553 64.4115 62.3686 64.5237C62.5004 65.6391 62.6322 66.7545 62.764 67.87C62.7826 68.0272 62.8126 68.2041 62.9434 68.2932C63.0482 68.3645 63.1858 68.3564 63.312 68.3454C67.3518 67.995 71.3917 67.6447 75.4315 67.2943C75.5322 67.2856 75.6444 67.2709 75.7076 67.1922C75.7728 67.1111 75.7601 66.9946 75.7441 66.8918C75.5549 65.68 75.3656 64.4683 75.1764 63.2566ZM74.3646 57.4314C74.3554 57.3637 74.3239 57.2767 74.2558 57.282C74.2269 57.2843 74.203 57.3043 74.1812 57.3233C72.1719 59.0788 70.1625 60.8344 68.1531 62.5899C70.2424 62.4147 72.3297 62.2156 74.4145 61.9924C74.5936 61.9733 74.8005 61.9362 74.8862 61.7777C74.9421 61.6743 74.9277 61.5486 74.9118 61.4321C74.7294 60.0985 74.547 58.765 74.3646 57.4314ZM122.856 76.2287C123.049 77.3394 123.241 78.45 123.434 79.5607C123.453 79.6709 123.492 79.8035 123.601 79.8276C123.779 79.8666 123.84 79.5997 123.816 79.4195C123.686 78.4585 123.556 77.4974 123.425 76.5363C123.402 76.3643 123.368 76.1734 123.229 76.0696C123.09 75.9657 122.827 76.0577 122.856 76.2287Z" fill="#00160A"/>
<path fill-rule="evenodd" clip-rule="evenodd" d="M27.3024 98.247C23.5903 98.3056 10.8247 99.2515 10.6042 98.7779C10.3221 98.1719 24.2428 97.3752 27.2772 97.3272L28.2277 97.3143C30.9867 97.2845 27.3024 98.247 27.3024 98.247ZM55.6552 97.0872C56.5566 97.0872 57.2623 97.3789 56.6554 97.5921C56.0485 97.8052 54.0847 98.2538 50.7963 98.3294C47.5079 98.405 43.6963 98.4832 38.064 98.5941C37.7374 98.6006 37.4674 98.341 37.461 98.0144C37.4546 97.6878 37.7141 97.4179 38.0407 97.4114L48.0141 97.2082C51.042 97.1427 52.9372 97.0872 55.6552 97.0872ZM100.706 96.741C101.032 96.7358 101.301 96.9964 101.307 97.323C101.312 97.6496 101.051 97.9186 100.725 97.9238L99.3385 97.9407L95.098 97.9701C94.2446 97.9788 59.7182 98.1993 59.25 97.6931C58.7819 97.1869 59.5003 97.0953 59.8269 97.0873C59.8269 97.0873 95.0868 96.786 96.0088 96.7793L99.5351 96.7559C99.945 96.7519 100.316 96.7471 100.706 96.741ZM139.038 95.6031C139.038 95.6031 140.1 95.4199 147.853 96.0003C148.178 96.0247 148.423 96.3085 148.398 96.6343C148.374 96.96 144.54 96.7955 139.299 96.7863L137.857 96.7886C134.009 96.8057 130.434 96.9098 124.5 97.1541L117.011 97.4704C113.815 97.6013 111.908 97.6651 109.59 97.7198C109.263 97.7275 108.992 97.469 108.985 97.1424C108.977 96.8159 109.235 96.5449 109.562 96.5372L111.424 96.4886C113.639 96.4245 115.915 96.3354 119.95 96.1631L124.229 95.9814C130.919 95.7047 134.639 95.6031 139.038 95.6031Z" fill="#00160A"/>
</svg>
