<svg width="159" height="159" viewBox="0 0 159 159" fill="none" xmlns="http://www.w3.org/2000/svg">
<g id="Illustration/Order Placed">
<path d="M0 79.5C0 35.5934 35.5934 0 79.5 0V0C123.407 0 159 35.5934 159 79.5V79.5C159 123.407 123.407 159 79.5 159V159C35.5934 159 0 123.407 0 79.5V79.5Z" fill="white"/>
<path id="Blob" fill-rule="evenodd" clip-rule="evenodd" d="M98.4548 32.7712C98.7038 23.5247 87.0013 7.73975 67.8298 10.49C46.8397 13.5011 31.6095 37.6193 34.6435 64.5758L34.7591 65.6111C36.6217 82.4479 37.244 95.7109 34.0258 114.387C31.6197 128.35 48.7298 159.263 86.5781 154.373C124.426 149.483 145.216 104.099 127.355 82.6846C103.499 54.082 97.9098 53.0086 98.4548 32.7712Z" fill="#64FCD9"/>
<path id="Path" fill-rule="evenodd" clip-rule="evenodd" d="M75.9776 59.7293C75.3283 58.0582 74.0982 56.6935 73.0335 55.2512C70.1866 51.3949 68.4211 46.7488 67.9886 41.975C67.7578 39.4265 68.6344 26.9879 73.2702 24.0699C70.9815 23.3652 68.6344 22.6305 66.7571 21.1437C64.8799 19.6569 63.5513 17.2262 64.0565 14.8854C64.8211 11.3424 69.4226 9.82136 72.8549 10.9859C76.2873 12.1503 78.7563 15.0964 81.0408 17.9103C83.2252 17.7263 83.7675 14.5076 85.7626 13.5993C87.1084 12.9867 88.6729 13.6148 89.9776 14.3108C93.7743 16.3361 97.3304 19.1133 99.338 22.9195C101.346 26.7256 101.519 31.694 98.9614 35.1543C99.8932 34.0876 101.824 35.4143 101.714 36.8264C101.603 38.2385 100.356 39.2631 99.1651 40.0299C97.9742 40.7967 96.6436 41.5916 96.173 42.9276C94.9885 46.2905 93.1066 49.406 90.6812 52.0194C89.1994 53.6161 87.4982 55.0527 86.3992 56.9335C85.3001 58.8143 84.9329 61.342 86.2149 63.1031C87.9196 61.2888 90.8577 60.7786 93.0743 61.9121C95.2908 63.0456 96.5972 65.7263 96.1242 68.1705C99.2127 68.4355 101.988 70.8823 102.637 73.9134C108.899 80.2259 114.014 87.6731 117.658 95.7838C119.972 100.932 121.689 106.324 123.402 111.702C124.072 113.806 124.75 116.011 124.377 118.187C123.619 122.607 118.824 125.211 114.37 125.735C108.825 126.386 103.046 124.768 98.6449 121.333C96.294 128.643 93.9472 136.629 96.6198 143.829C97.1921 145.371 96.0476 147.122 94.5524 147.807C93.0573 148.492 91.3364 148.392 89.6957 148.278C80.4999 147.641 71.304 147.003 62.1081 146.366C60.1811 146.232 57.5464 145.099 58.2285 143.291C59.7517 139.256 60.1869 134.815 59.4763 130.56C58.9342 133.426 57.994 136.216 56.6914 138.825C56.6914 138.825 52.1012 148.278 47.5235 143.427C44.9145 138.155 44.802 131.982 45.5722 126.151C46.3423 120.319 47.9343 114.613 48.5564 108.764C49.1625 103.066 48.8404 97.2999 49.4331 91.6004C50.0257 85.9009 51.6638 80.0641 55.554 75.8567C58.632 72.5278 61.71 69.1989 64.7879 65.87C65.6167 64.9738 66.4902 64.0469 67.6362 63.6264C68.7821 63.2059 70.2802 63.4733 70.8696 64.5423C71.5961 63.6385 72.4462 62.6642 73.5995 62.5433C74.7528 62.4224 75.9565 63.8353 75.216 64.7278C76.543 63.5224 76.6269 61.4003 75.9776 59.7293Z" fill="white"/>
<path id="Path_2" fill-rule="evenodd" clip-rule="evenodd" d="M100.517 73.9133C106.779 80.2258 111.894 87.673 115.538 95.7837C117.852 100.932 119.569 106.324 121.282 111.702C121.952 113.806 122.63 116.01 122.257 118.187C121.499 122.607 116.704 125.211 112.25 125.734C106.705 126.386 101.282 124.431 96.8807 120.995C94.5297 128.306 91.8272 136.629 94.4998 143.829C94.742 144.481 95.3737 145.219 95.1046 145.85C94.7377 146.71 93.2949 147.412 92.4325 147.807C92.2053 147.911 92.8116 145.76 92.7852 142.603C92.7402 137.231 90.4879 118.567 95.7897 119.8C108.739 122.811 118.502 122.344 118.707 119.132C119.746 102.823 99.8676 70.8822 100.517 73.9133Z" fill="#E7EAEE"/>
<path id="Combined Shape" fill-rule="evenodd" clip-rule="evenodd" d="M72.2552 56.179L72.2551 56.1789L72.255 56.1788L72.2549 56.1786L72.2548 56.1785L72.2547 56.1783L72.2546 56.1782L72.2544 56.178L72.2543 56.1779L72.2542 56.1777L72.2541 56.1776L72.254 56.1774L72.2539 56.1773L72.2538 56.1771L72.2536 56.177L72.2535 56.1768L72.2534 56.1767C72.0161 55.8692 71.7789 55.562 71.5495 55.2512C68.7026 51.3949 66.9371 46.7488 66.5047 41.975C66.2738 39.4265 67.1504 26.9879 71.7862 24.0699C69.4975 23.3652 67.1504 22.6305 65.2731 21.1437C63.3959 19.6569 62.0673 17.2262 62.5725 14.8854C63.3371 11.3424 67.9386 9.82136 71.3709 10.9859C74.8033 12.1503 77.2723 15.0964 79.5568 17.9103C80.76 17.8089 81.4649 16.787 82.1889 15.7375C82.7793 14.8816 83.3824 14.0073 84.2786 13.5993C85.6244 12.9867 87.189 13.6148 88.4936 14.3108C92.2903 16.3361 95.8464 19.1133 97.854 22.9195C99.8616 26.7256 100.035 31.694 97.4774 35.1543C98.4092 34.0876 100.34 35.4143 100.23 36.8264C100.119 38.2385 98.872 39.2631 97.6812 40.0299L97.49 40.1526C96.3511 40.8828 95.1346 41.6627 94.689 42.9276C93.5045 46.2905 91.6226 49.406 89.1973 52.0194C88.8029 52.4443 88.393 52.8579 87.9831 53.2715L87.983 53.2716C86.8526 54.4122 85.7218 55.5533 84.9152 56.9335C83.8161 58.8143 83.4489 61.342 84.7309 63.1031C86.4356 61.2888 89.3738 60.7786 91.5903 61.9121C93.8068 63.0456 95.1133 65.7263 94.6402 68.1705C97.7287 68.4355 100.504 70.8823 101.153 73.9134C107.415 80.2259 112.53 87.6731 116.175 95.7839C118.488 100.932 120.205 106.324 121.918 111.702C122.588 113.806 123.266 116.011 122.893 118.187C122.135 122.607 117.34 125.211 112.886 125.735C107.341 126.386 101.562 124.768 97.161 121.333C94.81 128.643 92.4632 136.629 95.1358 143.829C95.3724 144.466 95.3156 145.139 95.0619 145.758C93.3214 141.976 93.0027 137.66 93.4683 133.521C93.9375 129.349 95.1644 125.304 96.3855 121.287C96.588 120.621 95.5299 120.445 94.8401 120.351C93.6152 120.183 92.7264 119.139 91.9604 118.169L88.8458 114.223C86.8356 111.677 84.518 108.944 81.3114 108.451C80.4222 108.314 79.5223 108.364 78.6211 108.413C78.0721 108.444 77.5225 108.474 76.9746 108.462C74.8466 108.417 72.7371 107.716 71.0045 106.48C70.589 106.184 70.1674 105.812 70.0821 105.309C69.9988 104.817 70.4429 104.241 70.9146 104.367L70.948 104.377C70.9369 104.373 70.9257 104.369 70.9146 104.367C69.4133 103.914 67.9837 103.224 66.6948 102.331C66.4573 102.166 66.215 101.984 66.0926 101.722C65.8282 101.156 66.2659 100.463 66.8428 100.225C67.4197 99.9859 68.0732 100.073 68.6909 100.164C67.954 100.014 67.1942 99.8549 66.5768 99.4259C65.9593 98.9968 65.5168 98.2221 65.708 97.4949C65.8992 96.7677 66.9014 96.3176 67.4664 96.8137C67.22 96.0795 67.7542 95.2662 68.4534 94.9331C69.1526 94.6 69.9627 94.6263 70.736 94.6689C73.9806 94.8479 77.216 95.1941 80.425 95.7057L79.955 89.1046C79.9358 88.8353 79.9125 88.5533 79.7666 88.3262C79.5796 88.0354 79.2337 87.8967 78.9095 87.7766C72.3776 85.3569 65.658 83.4441 58.8311 82.0611L60.3605 110.713C60.4074 111.592 60.6521 112.706 61.5202 112.849C66.9138 113.737 72.2046 115.248 77.2536 117.342C77.9627 117.637 78.4814 116.644 78.6119 115.887L79.9056 108.388C80.0855 111.558 79.632 114.763 78.5798 117.758C79.3845 117.948 79.8501 116.884 79.9789 116.068L81.1472 108.658C81.3462 111.284 81.1165 113.943 80.47 116.497C80.3216 117.083 80.0961 117.732 79.5477 117.987C79.0836 118.203 78.54 118.063 78.0486 117.92L60.964 112.938C60.6954 112.859 60.415 112.774 60.2159 112.578C59.9195 112.285 59.8791 111.828 59.8562 111.413L58.4343 85.5772C58.3422 83.9025 58.4337 82.2236 58.5252 80.5488L58.9939 71.9715C56.2439 81.6584 55.9842 91.9266 57.1427 101.929C58.3012 111.932 60.8458 121.721 63.6338 131.397C62.4608 129.39 61.6041 127.199 61.1048 124.929C59.7411 126.881 58.3103 129.105 58.6994 131.454C59.3528 135.399 58.9361 139.516 57.5056 143.25C57.1793 144.102 57.7659 145.084 58.5691 145.516C59.3722 145.948 60.3248 145.97 61.2367 145.981L73.3769 146.132C73.042 145.707 73.1628 145.001 73.6201 144.712C73.4977 146.032 75.1899 146.653 76.503 146.831C82.7061 147.675 89.3002 148.466 95.0013 145.897C94.6213 146.717 93.899 147.426 93.0685 147.807C91.5733 148.492 89.8524 148.392 88.2117 148.278L60.6241 146.366C58.6971 146.232 56.0624 145.099 56.7445 143.291C58.2677 139.256 58.7029 134.815 57.9923 130.56C57.4502 133.426 56.51 136.216 55.2074 138.825C55.7417 134.468 57.2024 130.227 59.4643 126.465C61.0743 123.787 60.1468 120.38 59.3199 117.367C55.4045 103.101 54.7975 87.9388 57.5601 73.4061C51.6642 77.7158 49.2027 85.3633 48.5034 92.6329C48.211 95.6722 48.1627 98.7326 48.1144 101.791C48.0471 106.048 47.9799 110.301 47.2549 114.489C46.9237 116.402 46.4563 118.292 45.9893 120.181C45.2515 123.166 44.5146 126.148 44.3165 129.209C44.0073 133.989 45.0264 138.745 46.0395 143.427C43.4305 138.155 43.318 131.982 44.0881 126.151C44.4416 123.474 44.9681 120.825 45.4946 118.175C46.1153 115.052 46.7358 111.929 47.0724 108.764C47.3776 105.894 47.4475 103.007 47.5173 100.12C47.5861 97.2748 47.6549 94.4294 47.9491 91.6004C48.5417 85.9009 50.1798 80.0641 54.07 75.8567L63.3039 65.87C64.1327 64.9738 65.0062 64.0469 66.1522 63.6264C67.2981 63.2059 68.7962 63.4733 69.3856 64.5423C70.1121 63.6385 70.9622 62.6642 72.1155 62.5433C73.2688 62.4224 74.4725 63.8354 73.732 64.7278C75.0591 63.5224 75.1429 61.4003 74.4936 59.7293C73.9846 58.4192 73.1186 57.2975 72.2552 56.179L72.2552 56.179ZM95.0013 145.897C95.0226 145.851 95.0428 145.805 95.0619 145.758L95.0865 145.811L95.1045 145.85C95.0702 145.866 95.0358 145.882 95.0013 145.897ZM122.263 115.769C122.575 118.373 121.179 120.99 119.108 122.598C117.037 124.206 114.385 124.913 111.77 125.092C106.262 125.471 100.632 123.582 96.4666 119.96C99.6645 116.682 99.843 110.924 96.8544 107.455C99.4256 106.259 102.055 105.046 104.873 104.736C107.692 104.426 110.786 105.174 112.618 107.338C112.931 107.708 113.202 108.111 113.472 108.514L113.472 108.514L113.472 108.514L113.472 108.514L113.472 108.514L113.472 108.514L113.472 108.514L113.472 108.514L113.473 108.514L113.473 108.514L113.473 108.514L113.473 108.514L113.473 108.514L113.473 108.515L113.473 108.515L113.473 108.515C113.805 109.01 114.138 109.504 114.547 109.936C114.192 107.589 112.363 105.629 110.173 104.713C107.983 103.798 105.492 103.818 103.175 104.333C100.858 104.848 98.6751 105.831 96.5114 106.806C96.1 106.992 95.7922 106.4 95.7253 105.954L95.3376 103.367C95.1778 102.301 95.1948 100.906 96.1991 100.515C96.9535 100.221 96.7556 99.0698 96.2564 98.4324C96.1727 98.3255 96.0831 98.2182 95.9927 98.1098C95.5432 97.5712 95.0712 97.0058 95.1904 96.3424C96.4559 89.2964 97.7285 82.2224 99.9806 75.4272C100.05 75.2167 100.135 74.9885 100.327 74.8773C100.586 74.7269 100.914 74.8569 101.175 75.0044C103.285 76.1966 104.546 78.3267 105.804 80.452L105.804 80.4522L105.804 80.4524L105.804 80.4525L105.804 80.4527L105.804 80.4529L105.804 80.453L105.805 80.4532L105.805 80.4533L105.805 80.4535L105.805 80.4537L105.805 80.4538L105.805 80.454L105.805 80.4541L105.805 80.4543C106.249 81.2037 106.692 81.9525 107.172 82.6593C107.914 83.751 108.763 84.7617 109.613 85.7727C110.244 86.5234 110.875 87.2743 111.462 88.0587C115.081 92.8932 116.856 98.7083 118.635 104.536L118.635 104.536L118.635 104.536L118.635 104.536C119.447 107.194 120.259 109.855 121.248 112.426L121.324 112.624L121.369 112.739C121.751 113.726 122.137 114.721 122.263 115.769ZM93.9078 100.553C94.4242 100.548 94.9649 100.537 95.417 100.288C95.8691 100.039 96.1887 99.4673 95.9796 98.9952C95.781 98.547 95.2087 98.3854 94.7227 98.449C94.441 98.4858 94.1719 98.5779 93.9024 98.6701C93.7067 98.737 93.5108 98.804 93.3098 98.85C92.309 99.0789 91.2876 98.7772 90.2717 98.4772C89.172 98.1524 88.0788 97.8295 87.0254 98.1839C87.7067 97.0559 87.6618 95.6607 87.619 94.3353L87.6125 94.128C87.3961 87.0892 88.9579 80.0028 92.113 73.707C90.9483 74.5401 90.1125 75.8206 89.8186 77.222C89.7837 77.3885 89.7559 77.5573 89.728 77.7261L89.728 77.7262C89.6565 78.16 89.585 78.5937 89.3936 78.9865C88.6176 80.5786 86.4264 80.6965 84.6625 80.5374C83.2169 80.407 81.702 80.2172 80.5246 79.3684C79.934 78.9427 79.4586 78.3712 78.9858 77.8028C78.3563 77.0461 77.7315 76.2951 76.8459 75.9011C75.3771 75.2476 73.8074 75.7921 72.2192 76.3431C70.7844 76.8409 69.3345 77.3439 67.9302 76.9736C67.139 76.765 66.5917 77.7365 66.3542 78.5196L65.3195 81.9315C64.8367 80.0664 65.4264 77.9625 66.808 76.62C66.2163 76.2319 66.3756 75.4351 66.5334 74.6461C66.6932 73.8471 66.8513 73.0561 66.2258 72.7062C64.3375 71.6498 63.9638 69.1409 63.8026 66.9832C61.4001 67.8704 60.0294 70.4672 59.607 72.9932C59.358 74.4821 59.3608 75.9932 59.3637 77.506C59.3657 78.5596 59.3677 79.6141 59.2846 80.6622C66.5281 82.0803 73.6678 84.0282 80.6278 86.4853C81.0539 86.6357 81.5015 86.8033 81.7857 87.1545C82.0915 87.5323 82.1486 88.0473 82.1935 88.5313C82.4208 90.9787 82.6353 93.5273 81.7597 95.8239L81.7671 88.6668C81.7675 88.2705 81.6998 87.7745 81.3226 87.6531C80.7359 87.4642 80.4608 88.3606 80.5092 88.9751L80.9282 94.2954C80.9855 95.0237 81.0914 95.8442 81.6774 96.2803L71.1466 95.2225C70.0526 95.1126 68.7417 95.0943 68.1018 95.9884C68.2071 96.8438 69.2297 97.2028 70.0734 97.3787L76.7768 98.7763C74.6791 99.2099 72.4745 98.821 70.4899 98.015C70.3391 97.9537 70.1887 97.89 70.0382 97.8261C69.4099 97.5597 68.7793 97.2923 68.1057 97.2033C67.2707 97.093 66.3272 97.3206 65.8423 98.0092C68.8416 99.9926 72.3273 101.235 75.905 101.595C75.8834 101.983 75.3656 102.099 74.9778 102.071C73.9686 101.997 72.9982 101.701 72.0268 101.405C71.5759 101.268 71.1247 101.13 70.6695 101.015C69.2334 100.651 67.6236 100.53 66.3488 101.285C69.218 103.625 73.0011 104.438 76.6286 105.18L70.6221 105.052C71.6844 106.942 74.0679 107.638 76.2332 107.753C76.8734 107.787 77.5193 107.786 78.165 107.785H78.1654C79.7035 107.783 81.2402 107.781 82.6939 108.249C85.3329 109.098 87.2444 111.337 89.0098 113.475L92.4141 117.596C92.8783 118.158 93.7627 118.22 94.4186 117.903C95.0746 117.585 95.5375 116.972 95.9002 116.34C96.621 115.084 97.0498 113.609 96.8171 112.18C96.5844 110.75 95.5982 109.4 94.2085 108.992C91.8212 108.292 90.1265 106.17 88.955 103.976C88.5528 103.222 88.1915 102.445 87.8304 101.668C87.1396 100.182 86.4497 98.6978 85.4761 97.3858C85.1843 96.9927 84.8664 96.6136 84.5487 96.2346L84.5486 96.2345L84.5484 96.2342C83.7626 95.2971 82.9774 94.3607 82.5886 93.214C84.5886 95.1491 86.286 97.3964 87.6003 99.8494C87.7428 100.115 87.9 100.402 88.1752 100.526C88.3515 100.605 88.5518 100.605 88.745 100.603L93.9078 100.553ZM93.3575 40.5455C93.8408 40.4826 94.2229 40.1202 94.5685 39.7766L96.2501 38.104C93.1437 45.8012 88.7077 53.2432 81.9831 58.1091C80.6178 59.097 78.9948 60.007 77.3359 59.7105C76.4669 59.5552 75.6874 59.0786 74.9963 58.5294C73.5569 57.3858 72.4182 55.905 71.4443 54.3458C68.6949 49.9436 67.1682 44.7703 67.1914 39.5802C67.2146 34.3901 68.8019 29.2023 71.7724 24.9462C71.8745 24.7999 71.989 24.6464 72.1576 24.5881C72.3288 24.5289 72.5161 24.5814 72.6894 24.6341C78.9154 26.5266 85.082 28.615 91.1768 30.895C92.1417 31.2559 92.5433 32.3914 92.7187 33.4065C93.0799 35.4973 92.9836 37.6659 92.4386 39.7164C92.3134 40.1873 92.8742 40.6083 93.3575 40.5455ZM89.2951 24.9836C90.0295 24.9902 90.5416 25.9723 90.1266 26.5782C89.7115 27.1841 88.6107 27.0613 88.3393 26.3789C88.035 25.6134 87.2498 25.1979 86.5092 24.806L86.509 24.8059C86.4305 24.7643 86.3524 24.723 86.2756 24.6816C83.7865 23.341 81.873 21.2121 79.9688 19.0936L79.9687 19.0935L79.9687 19.0934L79.9685 19.0933C79.4691 18.5376 78.9702 17.9826 78.4618 17.4428C77.4958 16.417 76.4825 15.4356 75.4264 14.5028C74.2681 13.4797 73.0391 12.5033 71.6209 11.8894C70.2027 11.2756 68.5629 11.0519 67.1034 11.5598C67.7608 11.5931 68.2759 12.3423 68.0716 12.9681C67.8673 13.594 67.0093 13.8949 66.4589 13.5339C65.9084 13.1728 65.8425 12.266 66.3351 11.8293C64.8425 12.2711 63.5884 13.4515 63.0571 14.9146C62.9523 15.2031 62.8744 15.5221 62.9703 15.8137C63.0243 15.9781 63.1303 16.1241 63.2351 16.2684C63.3832 16.4723 63.5288 16.6729 63.5221 16.9172C63.4682 18.8732 65.3832 20.6442 67.329 20.4378C67.7102 20.3974 67.8637 20.7774 68.023 21.1717C68.099 21.3598 68.1763 21.5512 68.2803 21.7016C68.466 21.9704 68.7762 22.1201 69.0733 22.256C72.0934 23.6374 75.2184 24.7894 78.4125 25.6986C78.7826 25.8039 79.2894 25.8478 79.4463 25.4965C79.657 25.0249 80.2691 24.7801 80.7468 24.9764C81.2245 25.1726 81.4878 25.7769 81.3061 26.2604C81.2248 26.477 81.4917 26.6526 81.7093 26.7313L92.5903 30.6654C92.3895 29.8601 93.4125 29.0597 94.1459 29.4482C94.8792 29.8368 94.7915 31.1327 94.0125 31.4189L97.9894 33.4242L98.7034 27.5881C98.7368 27.3155 98.6278 26.9101 98.3645 26.9881C97.8765 27.1326 97.3013 26.8567 97.1087 26.3857C96.916 25.9146 97.1329 25.3147 97.5822 25.0758C97.928 24.8919 98.0569 24.4387 97.9804 24.0546C97.9039 23.6705 97.6674 23.3402 97.4313 23.0276C94.8772 19.6468 91.642 16.7686 87.9313 14.723C86.9368 14.1748 85.7313 13.6808 84.7036 14.1638C84.1087 14.4435 83.7085 14.9938 83.3173 15.5318C83.2551 15.6174 83.1931 15.7027 83.1305 15.7865C82.3481 16.8355 81.3799 17.7455 80.2846 18.4616L83.7516 21.9889C83.4649 21.3698 83.9013 20.5358 84.5734 20.4185C85.2454 20.3012 85.9386 20.938 85.8785 21.6176C85.8184 22.2972 85.0243 22.8025 84.3833 22.5692C85.8311 23.7389 87.4339 24.9671 89.2951 24.9836ZM93.7085 72.7599C94.2354 72.7985 94.7704 72.4821 94.9904 72.0018C95.2105 71.5215 95.1006 70.9097 94.7273 70.5359C94.2608 70.0689 94.801 69.1967 95.4575 69.1289C96.1141 69.0611 96.7107 69.4805 97.237 69.8789L99.7738 71.7994C100.081 72.0323 100.426 72.3802 100.292 72.7418C97.3945 80.5332 95.4899 88.6932 94.6388 96.9622C94.5698 97.6325 93.9238 98.1259 93.2608 98.246C92.5978 98.3661 91.9203 98.1979 91.2675 98.0309L88.9336 97.4337C88.7751 97.3931 88.609 97.3485 88.4912 97.235C88.3226 97.0728 88.2968 96.8164 88.2828 96.5829C87.8086 88.6201 89.4465 80.5411 92.9845 73.3917C93.1358 73.086 93.3683 72.735 93.7085 72.7599ZM88.5678 67.7653C87.9364 67.2888 88.0812 66.1255 88.8103 65.8184C87.0057 65.9743 85.3595 66.7786 83.7116 67.5836L83.7115 67.5836C82.1221 68.3601 80.5312 69.1373 78.7954 69.3342C79.8385 70.0419 80.3307 71.3983 80.1894 72.6508C80.048 73.9034 79.3465 75.0438 78.4348 75.9143C79.2153 77.4092 80.5045 78.6325 82.0383 79.3337C82.5788 79.5807 83.1981 79.7654 83.761 79.5748C83.8837 79.5332 84.0148 79.4776 84.148 79.4212L84.1481 79.4211L84.1481 79.4211C84.6342 79.215 85.149 78.9968 85.393 79.4017C85.8505 80.1611 87.0182 79.987 87.7757 79.5263C88.2932 79.2115 88.7746 78.7852 88.9877 78.2183C89.2007 77.6514 89.0745 76.9274 88.5765 76.5827C88.1629 76.2965 88.0238 75.6784 88.2749 75.2425C88.526 74.8067 89.1305 74.617 89.5856 74.8313C89.983 75.0184 90.3551 74.5521 90.5924 74.1824C91.1511 73.3123 91.9742 72.6145 92.924 72.2057C92.5437 71.6467 92.5971 70.8313 93.047 70.3266C91.8847 69.477 90.9523 68.3161 90.3734 66.998C90.2782 67.7833 89.1993 68.2418 88.5678 67.7653ZM73.1753 64.7242C73.1609 64.8181 73.1466 64.9118 73.1353 65.0049C73.083 65.4388 73.1297 65.9435 73.4775 66.2082C74.8045 64.5998 75.5846 62.5482 75.6614 60.4644C75.6767 60.0482 76.3077 60.1084 76.7011 60.2454C77.8622 60.6499 79.1658 60.4481 80.2922 59.9549C81.4185 59.4616 82.4014 58.6977 83.3712 57.9418C83.0872 59.8311 83.3344 61.7974 84.0771 63.5576L80.2434 66.4365C80.0918 66.5504 79.9497 66.8112 80.1234 66.8872C81.5763 66.4161 82.8097 65.4582 84.0177 64.5201L84.1309 64.4322C85.3752 63.4665 86.6778 62.4978 88.2025 62.1028C89.7272 61.7079 91.5416 62.0195 92.5133 63.2591C92.9922 63.8701 93.2214 64.6347 93.4406 65.3794L94.1195 67.6858C94.2667 68.1858 94.4113 68.7368 94.1993 69.2129C93.9874 69.689 93.2419 69.9236 92.9445 69.4956L91.5545 67.4957C90.8923 66.543 90.1411 65.525 89.0228 65.2158C87.8028 64.8785 86.5448 65.4881 85.4103 66.0495C83.4225 67.0333 81.3872 67.9215 79.3141 68.7098C78.6767 68.9522 77.9697 68.7156 77.278 68.4841C76.4906 68.2206 75.723 67.9637 75.1007 68.4278C74.8697 68.6 74.5431 68.5059 74.2768 68.3959C72.4455 67.6391 70.8049 66.4256 69.5452 64.896L72.1825 63.1829C72.549 62.9448 73.0588 63.2867 73.1832 63.7056C73.2809 64.0347 73.228 64.3806 73.1753 64.7242ZM75.1144 74.9432C73.9142 73.962 73.3342 72.28 73.6745 70.7677C73.761 70.3833 73.3614 70.0856 73.0385 69.8599C72.7156 69.6342 72.3959 69.194 72.6451 68.8889C72.7794 68.7246 72.5963 68.4944 72.4286 68.3643L69.2017 65.8627C68.8145 65.5626 68.4153 65.2482 68.1918 64.8123C67.7879 64.0243 66.7096 63.6689 65.9163 64.0621C64.7897 64.6206 64.6326 66.1349 64.6265 67.3923C64.625 67.6886 64.7084 68.082 65.0042 68.0988C65.7605 68.1416 66.1185 69.3159 65.5147 69.7733C64.9233 70.2213 65.3454 71.1926 65.9336 71.6449C66.0619 71.7435 66.1993 71.8381 66.3373 71.9331C66.832 72.2735 67.3357 72.6201 67.4646 73.1857C67.5606 73.6066 67.4187 74.0527 67.28 74.4885C67.1067 75.0334 66.9385 75.5622 67.247 76.0052C67.6248 76.5477 68.4305 76.4949 69.0803 76.3731C71.1127 75.9921 73.1271 75.5147 75.1144 74.9432ZM89.4547 101.237C90.9174 101.119 92.3898 101.122 93.852 101.245C93.9746 101.256 94.1041 101.269 94.2025 101.343C94.3541 101.457 94.3813 101.669 94.3983 101.858C94.5383 103.407 94.8326 104.943 95.2755 106.434C95.2067 106.617 95.0113 106.661 94.8081 106.708C94.6755 106.738 94.5396 106.768 94.4334 106.839C94.0906 107.067 94.1906 107.612 94.4453 107.935C94.5353 108.05 94.6396 108.154 94.7437 108.258L94.7438 108.258C94.9341 108.449 95.1235 108.638 95.2224 108.885C92.0856 107.902 89.799 105.093 88.5773 102.042C88.5033 101.857 88.4319 101.651 88.4991 101.463C88.5664 101.276 88.8431 101.165 88.97 101.319C89.02 101.379 89.0327 101.461 89.0436 101.539L89.2571 103.064C89.285 103.263 89.6113 103.265 89.7218 103.097C89.8324 102.929 89.7915 102.708 89.7466 102.511L89.4547 101.237ZM79.2869 71.2381C78.8656 70.0238 77.7304 69.088 76.458 68.9062C75.9924 68.8396 75.4676 68.8869 75.1342 69.2187C74.4015 69.9481 74.112 71.0606 74.2839 72.0801C74.4558 73.0996 75.0543 74.0197 75.8434 74.6876C76.4333 75.1869 77.265 75.5648 77.9652 75.238C78.1737 75.1406 78.3517 74.9877 78.5103 74.821C79.3966 73.8902 79.7082 72.4524 79.2869 71.2381ZM93.2679 39.213C93.6139 36.805 93.9357 34.2085 92.7988 32.0578C92.7197 31.9081 92.6381 31.7112 92.7514 31.5854L96.3202 33.3536C96.6032 33.4938 96.9383 33.7652 96.8066 34.0524C96.6528 34.3876 96.6237 34.7581 96.5945 35.1291C96.5822 35.2858 96.5699 35.4426 96.5481 35.5969C96.4167 36.5297 95.9318 37.3841 95.317 38.0977C94.7022 38.8114 93.9585 39.4005 93.2197 39.985C93.1944 39.7277 93.2312 39.4688 93.2679 39.213ZM96.8614 108.367C96.4518 107.791 95.9045 107.226 95.2009 107.156C94.9295 107.129 94.5643 107.404 94.7615 107.593C96.4654 109.222 97.6067 111.553 97.3957 113.901C97.1847 116.249 95.4133 118.49 93.0832 118.848C93.7725 119.666 95.0874 119.73 96.0215 119.208C96.9556 118.686 97.5563 117.714 97.9351 116.714C98.9691 113.982 98.553 110.748 96.8614 108.367ZM60.2866 81.3199C62.8717 81.7249 65.394 82.4518 67.9082 83.1768L74.7594 85.1525C76.8446 85.7538 78.9532 86.3649 80.8337 87.4482C79.9417 87.4158 79.0745 87.161 78.221 86.9001C76.7119 86.4387 75.2079 85.9516 73.7036 85.4643L73.7034 85.4642L73.7031 85.4641L73.703 85.4641C68.8226 83.8832 63.9386 82.3012 58.8679 81.5972C59.1918 81.2095 59.7875 81.2417 60.2866 81.3199ZM97.7458 35.7964C97.3534 36.1489 97.1659 36.6748 97.0532 37.1901C97.0202 37.3414 96.9921 37.4942 96.964 37.647C96.8966 38.0145 96.8291 38.3818 96.6918 38.7282C96.6693 38.785 96.6448 38.8424 96.6202 38.9001C96.4966 39.1898 96.3688 39.4893 96.4611 39.7816C97.9409 39.6866 99.2796 38.4944 99.5448 37.0355C99.6338 36.5458 99.581 35.9707 99.1933 35.6587C98.7824 35.328 98.1382 35.4439 97.7458 35.7964ZM90.1696 16.6429C90.3398 17.1262 90.0828 17.7193 89.6138 17.9255C89.1448 18.1317 88.534 17.9202 88.293 17.468C88.0277 16.9703 88.27 16.2706 88.7863 16.0436C89.3027 15.8166 89.9821 16.1109 90.1696 16.6429ZM72.5541 17.0991C72.5834 16.6597 72.3075 16.2165 71.9003 16.0488C71.3821 15.8354 70.7159 16.1192 70.5107 16.6407C70.3056 17.1623 70.6 17.8239 71.1247 18.0207C71.7409 18.2518 72.5103 17.7557 72.5541 17.0991ZM92.5969 21.5253C92.6115 22.0812 93.1216 22.5767 93.6776 22.5751C94.2675 22.5735 94.7931 22.0064 94.7499 21.4181C94.7092 20.8635 94.1765 20.3925 93.6211 20.4202C93.0657 20.4478 92.5823 20.9694 92.5969 21.5253ZM76.7452 22.1705C76.3419 22.6744 75.4618 22.6757 75.0571 22.173C74.6525 21.6703 74.8417 20.8108 75.4201 20.5245C75.9984 20.2382 76.7967 20.6089 76.951 21.2356C77.03 21.5565 76.9517 21.9124 76.7452 22.1705ZM73.4754 30.5692C73.1342 31.1023 73.0613 31.7981 73.2847 32.3903C73.3675 32.6099 73.4909 32.8179 73.6663 32.9739C74.2289 33.4744 75.1907 33.2629 75.6643 32.6775C76.1378 32.0921 76.203 31.2661 76.0633 30.5262C76.0076 30.2312 75.9051 29.9163 75.6533 29.7527C75.4781 29.6388 75.2577 29.6183 75.0493 29.6333C74.4179 29.6784 73.8165 30.036 73.4754 30.5692ZM84.8051 36.0253C84.6191 35.8353 84.4964 35.5903 84.4202 35.3355C84.1378 34.391 84.5355 33.2846 85.3546 32.7359C85.725 32.4878 86.2027 32.3499 86.6219 32.5018C87.1359 32.688 87.4184 33.2488 87.5159 33.7867C87.6555 34.5566 87.4876 35.4194 86.9208 35.9587C86.354 36.498 85.3523 36.5844 84.8051 36.0253ZM70.611 46.6448C70.6299 46.1692 70.6685 45.6944 70.7268 45.2219C70.7469 45.0582 70.8886 44.9175 71.0525 44.8985C71.1284 46.0636 71.1637 47.2315 71.1585 48.3991C70.6431 48.0214 70.5857 47.2833 70.611 46.6448ZM89.7538 41.5862C89.5989 40.8778 89.0669 40.2636 88.3879 40.0091C88.2744 39.9665 88.2795 39.7849 88.375 39.7101C88.4705 39.6353 88.6063 39.6428 88.7242 39.6716C89.3698 39.8293 89.7692 40.4628 90.0644 41.0583C90.1426 41.2158 90.2193 41.3995 90.1506 41.5613C90.0818 41.7231 89.7914 41.758 89.7538 41.5862ZM77.9481 144.82C77.8802 144.666 77.7078 144.593 77.5503 144.536C75.0842 143.637 72.466 143.157 69.8413 143.123C69.4672 143.118 69.0302 143.154 68.8242 143.466C69.0246 143.635 69.3123 143.635 69.5741 143.631C72.3531 143.589 75.1393 144.105 77.719 145.139C77.8746 145.201 78.016 144.973 77.9481 144.82ZM79.3142 37.3663C79.1658 37.4886 79.002 37.5904 78.8383 37.6922C78.6536 37.8071 78.4689 37.9219 78.3066 38.066C78.0004 38.3376 77.779 38.777 77.9373 39.1544C78.1329 39.6207 78.7612 39.7089 79.2588 39.6191L79.285 39.6143L79.3213 39.6074C79.4787 39.5778 79.6395 39.5475 79.7926 39.5894C79.9661 39.6369 80.1185 39.8197 80.0591 39.9895C80.0174 40.1087 79.8923 40.1752 79.7746 40.2212C79.0457 40.5063 78.1357 40.4002 77.5948 39.8343C77.054 39.2685 77.0404 38.2322 77.6582 37.7516L80.072 35.8738C80.0473 36.4479 79.7577 37.0009 79.3142 37.3663ZM88.5573 42.2136C88.7071 43.0615 88.4899 43.9329 88.1821 44.737C86.8571 48.1995 83.7285 50.913 80.1135 51.7351C78.6587 52.0659 77.0537 52.0853 75.7591 51.3438C74.4644 50.6024 73.6322 48.9346 74.1999 47.5549C74.8662 45.9355 76.9293 45.4814 78.68 45.4447C78.8332 45.4414 78.9879 45.4391 79.1437 45.4368H79.1438H79.1439H79.144H79.1441H79.1442H79.1443H79.1444C80.769 45.4127 82.5033 45.3869 83.6791 44.3052C84.0975 43.9203 84.3993 43.4359 84.7018 42.9507C84.9567 42.5416 85.212 42.132 85.5378 41.7806C86.2503 41.0124 87.6458 40.6453 88.2719 41.4854C88.4291 41.6964 88.5115 41.9545 88.5573 42.2136ZM87.8133 43.5058C87.9938 42.8158 87.9145 41.8231 87.2089 41.7188C86.9465 41.68 86.6849 41.7975 86.4669 41.9487C85.9248 42.3249 85.5773 42.8915 85.2279 43.4613C84.9505 43.9135 84.672 44.3677 84.294 44.7301C83.307 45.6766 81.8305 45.8441 80.4681 45.9621L77.8497 46.1888C77.1818 46.2466 76.4898 46.3118 75.9086 46.6458C74.8168 47.2731 74.4383 48.8769 75.1342 49.9262C75.8868 51.061 77.4559 51.3073 78.8112 51.1762C82.9889 50.7722 86.7513 47.5664 87.8133 43.5058ZM89.3054 96.5465C89.1633 96.5629 89.0156 96.5228 88.9013 96.4369C88.824 96.3787 88.762 96.3004 88.7232 96.2118C88.597 95.9236 88.7674 95.5446 89.0667 95.4476C89.366 95.3507 89.7263 95.5578 89.793 95.8652C89.8598 96.1727 89.6179 96.5106 89.3054 96.5465ZM94.1486 96.5855C94.0454 96.495 93.9072 96.4453 93.77 96.4494C93.4325 96.4596 93.1614 96.8404 93.2624 97.1627C93.3634 97.4849 93.8033 97.643 94.0863 97.4587C94.3692 97.2744 94.4025 96.8081 94.1486 96.5855ZM83.9667 72.0546C83.616 71.651 83.646 70.9729 84.031 70.6018C84.416 70.2307 85.0947 70.2256 85.4852 70.5909C85.9023 70.981 85.9079 71.726 85.4967 72.1223C85.0855 72.5187 84.3413 72.4858 83.9667 72.0546ZM79.3775 75.4202C79.2971 75.6356 79.2904 75.8779 79.3588 76.0975C79.5533 76.7221 80.4166 77.0192 80.9544 76.6467C81.4921 76.2742 81.5174 75.3615 81.001 74.9598C80.4846 74.5582 79.6062 74.8073 79.3775 75.4202ZM70.0914 73.8314C69.9703 74.2314 69.5874 74.5378 69.1706 74.5682C68.5555 74.6131 67.981 74.0027 68.0629 73.3915C68.1448 72.7803 68.8599 72.3428 69.4415 72.548C69.9406 72.7243 70.2447 73.3247 70.0914 73.8314Z" fill="#00160A"/>
</g>
</svg>
