<svg width="159" height="159" viewBox="0 0 159 159" fill="none" xmlns="http://www.w3.org/2000/svg">
<path d="M0 79.5C0 35.5934 35.5934 0 79.5 0V0C123.407 0 159 35.5934 159 79.5V79.5C159 123.407 123.407 159 79.5 159V159C35.5934 159 0 123.407 0 79.5V79.5Z" fill="white"/>
<path d="M115.939 138.012C128.648 139.121 151.661 121.688 133.959 95.9299C115.638 66.0842 146.916 44.7319 121.158 28.1959C102.487 16.2096 80.0444 42.1076 65.0187 36.9661C32.9659 28.1959 12.6826 60.5963 26.8179 81.1959C37.3806 96.589 11.7627 107.166 22.0479 119.356C33.4959 132.924 42.5676 118.257 59.3599 121.327C83.7399 125.785 101.214 136.727 115.939 138.012Z" fill="#64FCD9"/>
<path d="M91.7761 32.7261L91.9783 32.8467L92.1785 32.9685C94.9998 34.703 94.2754 37.4794 97.9836 41.6047C106.016 50.54 113.695 59.8114 120.999 69.3886L121.574 70.1453L121.742 70.366C124.46 73.9632 125.656 76.2752 125.723 79.0492C125.773 81.1007 127.878 82.4792 126.351 84.0684L126.269 84.1531L126.261 84.1603L126.235 84.1882C125.872 84.5781 125.466 84.9245 125.022 85.2198L124.904 85.2967L124.867 85.3228C122.998 86.597 120.797 87.1262 118.745 86.7353L118.635 86.7135L118.546 86.6942L118.535 86.7727C116.455 100.486 112.216 113.869 106.022 126.279L105.834 126.655L105.641 127.038L105.53 127.255L105.416 127.473C104.842 128.566 104.425 129.171 103.803 129.726C102.933 130.501 101.83 130.934 100.47 131.11C99.506 131.234 98.5995 131.233 97.0689 131.145L96.8003 131.13C90.6571 130.757 84.489 130.759 78.3419 131.136L77.7657 131.172L77.2897 131.204L77.2201 131.211C76.2901 131.31 75.4467 131.381 74.6396 131.425L74.4386 131.436L74.2135 131.446L74.1724 131.449C73.215 131.534 72.2586 131.629 71.3034 131.732L69.6747 131.916L68.3036 132.073L67.7003 132.139C67.5138 132.159 67.3393 132.177 67.1691 132.194L66.5241 132.254L66.4786 132.288C66.4558 132.304 66.4327 132.32 66.4091 132.336L66.337 132.382L66.2619 132.426L66.0189 132.558L65.8559 132.436L65.8091 132.399L65.7645 132.36L65.7225 132.318L65.6146 132.326C63.2715 132.489 61.3255 132.429 59.4898 132.078L59.3233 132.045L59.162 132.012C55.0023 131.131 51.5525 128.401 50.6489 124.841C47.2439 111.424 42.4804 98.3518 36.4552 85.8896L36.3732 85.7209L36.3334 85.7446C34.9045 86.5541 33.1091 86.3556 31.5277 85.3295L31.4461 85.2757L31.3633 85.2191L31.3441 85.211C30.8482 84.9911 30.4078 84.5962 30.0937 84.0999L30.0497 84.0283L30.0186 83.9594L30.0069 83.9645C29.4949 83.3362 29.116 82.6312 28.9042 81.8971L28.8737 81.7868L28.8457 81.6761C28.1675 78.8596 29.0399 75.9575 31.1754 72.2757C31.7959 71.2059 35.5679 64.8975 40.6266 61.9036C46.1913 58.6102 45.1552 58.9017 46.3506 57.8756C47.2761 56.7099 43.5609 50.0168 40.2801 46.6399C36.9993 43.263 49.9131 39.8277 50.9171 40.1989C51.1802 40.2962 51.423 40.4167 51.6475 40.5604L51.7426 40.6234L51.753 40.6306L51.7785 40.5653L51.8533 40.7027L51.8902 40.7301C52.3444 41.0763 52.7169 41.5299 53.0266 42.091L53.0839 42.1975L53.1315 42.29C53.4806 42.9825 54.1601 43.333 54.4841 44.6259L54.7041 45.5205L54.767 45.7722L54.8285 46.0122C55.0824 46.9884 55.5442 47.6789 55.8278 48.2659L55.8621 48.3359L55.8795 48.3706L55.9589 48.2657C60.6429 42.0999 66.0427 37.333 72.9345 33.8067L72.8845 33.8078C72.1227 33.8078 74.1146 32.9103 79.154 31.1268L79.4401 31.0265L79.7356 30.925C83.4587 29.6585 87.8664 30.4188 91.7761 32.7261Z" fill="white"/>
<path d="M119.565 86.2057L119.455 86.1838L119.366 86.1646L119.354 86.243C117.275 99.9562 113.036 113.339 106.842 125.75L106.653 126.125L106.46 126.508L106.349 126.725C105.714 127.958 105.285 128.605 104.622 129.196C103.752 129.972 102.65 130.404 101.289 130.58C100.325 130.704 99.6535 130.312 97.1963 130.09C105.556 125.53 106.852 116.908 109.776 111.3C118.269 95.0108 112.999 90.5782 119.565 86.2057Z" fill="#E7EAEE"/>
<path d="M82.1724 146.219C82.0631 146.479 81.7101 146.577 81.4946 146.408C81.6256 146.225 81.7627 146.037 81.9542 145.93C82.1457 145.823 82.4081 145.823 82.5546 145.992C82.4416 146.075 82.3287 146.158 82.2157 146.241L82.1724 146.219Z" fill="#00160A"/>
<path d="M82.2498 147.061C81.9981 147.083 81.7463 147.106 81.4946 147.128C81.6048 146.988 81.715 146.847 81.8251 146.707C81.9697 146.701 82.1272 146.698 82.2438 146.772C82.3604 146.846 82.3855 147.029 82.2552 147.083L82.2498 147.061Z" fill="#00160A"/>
<path d="M90.4883 136.74C90.3723 136.686 90.3793 136.532 90.4496 136.435C90.5198 136.337 90.6326 136.267 90.6979 136.167C90.7676 136.06 90.7756 135.932 90.782 135.809C90.8024 135.413 90.8228 135.016 90.8433 134.62C91.0448 134.947 91.0842 135.347 90.9495 135.699C91.1536 135.668 91.3742 135.771 91.4586 135.936C91.1564 136.223 90.832 136.492 90.4883 136.74Z" fill="#00160A"/>
<path d="M90.1602 136.528C89.8334 136.463 89.57 136.161 89.5505 135.829C89.7754 135.914 90.029 135.747 90.1377 135.534C90.2464 135.32 90.2536 135.072 90.2863 134.835C90.3609 134.296 90.5817 133.777 90.9191 133.348C91.1263 133.681 91.0466 134.161 90.743 134.409C90.2761 134.791 90.6947 135.635 90.3239 136.11C90.2236 136.238 90.0626 136.398 90.1602 136.528Z" fill="#00160A"/>
<path d="M53.2986 56.6661C51.8862 58.19 49.4134 58.852 47.6446 57.7582C46.1973 56.8631 45.572 55.1267 44.8862 53.5728C44.1818 51.9769 43.3154 50.4521 42.3043 49.0293C41.6318 48.0829 40.6712 47.085 39.5186 47.2444C39.7364 46.8663 40.2699 46.7701 40.6813 46.9188C41.0926 47.0675 41.4066 47.399 41.6939 47.7278C43.1408 49.3841 44.3307 51.2628 45.2086 53.2769C45.6404 54.2677 46.0024 55.3007 46.6131 56.1931C47.2238 57.0855 48.1423 57.8415 49.2204 57.954C50.1574 58.0518 51.0682 57.6598 51.9282 57.2766C52.385 57.0731 52.8418 56.8696 53.2986 56.6661Z" fill="#00160A"/>
<path d="M69.088 144.381C70.5225 143.692 72.1581 143.627 73.7427 143.574C75.8195 143.504 77.9227 143.436 79.9503 143.899C80.6478 144.059 81.4672 144.448 81.4915 145.177C81.5158 145.905 81.3938 146.638 81.1353 147.318C80.8227 146.74 80.0154 146.761 79.3747 146.855C75.961 147.35 72.4499 147.641 69.091 146.846C68.6954 146.753 68.2656 146.617 68.0515 146.265C67.8405 145.918 67.914 145.448 68.1422 145.112C68.3704 144.777 68.7258 144.555 69.088 144.381ZM73.0892 146.701C72.0011 146.618 70.9152 146.504 69.8331 146.361C69.5154 146.319 69.1863 146.27 68.9176 146.092C68.649 145.913 68.4593 145.568 68.5589 145.257C68.2438 145.321 68.1648 145.791 68.3545 146.056C68.5441 146.32 68.8797 146.422 69.1927 146.496C72.5751 147.301 76.1073 146.91 79.5583 146.509C80.25 146.429 81.1207 146.173 81.1834 145.466C81.2483 144.733 80.3746 144.329 79.6647 144.196C76.7796 143.656 73.8121 143.866 70.8977 144.205C70.4519 144.257 69.9956 144.315 69.5961 144.523C69.1966 144.731 68.859 145.124 68.8381 145.581C69.8558 146.367 71.288 146.093 72.5448 146.323C72.7749 146.366 73.0433 146.467 73.0892 146.701Z" fill="#00160A"/>
<path d="M69.7801 116.008C70.0115 116.252 70.1118 116.609 70.0018 116.919C69.8918 117.228 69.5584 117.465 69.2114 117.447C68.8644 117.429 68.5494 117.134 68.5629 116.808C68.5805 116.381 68.6965 115.84 69.1432 115.76C69.3794 115.718 69.62 115.84 69.7801 116.008V116.008ZM69.0266 116.624C68.851 116.851 69.2047 117.186 69.482 117.081C69.7593 116.977 69.8398 116.617 69.7137 116.363C69.6739 116.283 69.6166 116.208 69.537 116.16C69.2775 116.006 68.8883 116.316 69.0086 116.582L69.0266 116.624Z" fill="#00160A"/>
<path d="M80.7235 140.137C80.6272 140.071 80.5309 140.005 80.4346 139.94C80.7177 139.269 80.7621 138.499 80.558 137.8C81.4403 138.185 80.5698 139.948 81.4382 140.363C81.4905 139.556 82.1263 138.882 82.8603 138.548C83.5943 138.213 84.4189 138.154 85.2233 138.101C88.2967 137.895 91.4435 137.697 94.4039 138.551C94.9727 138.715 95.624 139.027 95.6929 139.616C95.7615 140.204 95.1948 140.665 94.6493 140.889C93.7723 141.248 92.8079 141.319 91.8615 141.359C89.1998 141.472 86.5292 141.371 83.8836 141.057C83.147 140.97 82.3447 140.83 81.859 140.268C81.5153 140.648 80.9004 140.746 80.4566 140.49C80.5456 140.373 80.6345 140.255 80.7235 140.137V140.137ZM83.2918 138.769C83.0794 138.811 82.8461 138.868 82.7242 139.047C82.5604 139.288 82.6932 139.639 82.9288 139.809C83.1643 139.979 83.4673 140.016 83.756 140.048C85.8908 140.283 88.0256 140.518 90.1605 140.752C88.1262 140.915 86.0697 140.798 84.0668 140.405C83.4463 140.283 82.8 140.119 82.3391 139.685C82.172 139.843 82.232 140.141 82.4013 140.296C82.5705 140.452 82.8085 140.502 83.0343 140.543C86.5076 141.177 90.078 141.273 93.5802 140.826C94.105 140.759 94.6741 140.657 95.0245 140.259C95.375 139.861 95.2924 139.08 94.7767 138.961C91.0176 138.096 87.0775 138.03 83.2918 138.769Z" fill="#00160A"/>
<path d="M68.74 109.055C68.6222 109.188 68.7045 109.397 68.7654 109.566C68.8946 109.925 68.8962 110.318 68.8962 110.702C68.8961 111.687 68.896 112.673 68.8959 113.658C68.8959 113.839 68.845 114.079 68.6718 114.086C68.6658 112.895 68.6597 111.704 68.6536 110.513C68.6513 110.057 68.6397 109.571 68.3886 109.198C68.234 108.969 68.5851 108.669 68.8322 108.78C69.0792 108.89 69.1799 109.195 69.2318 109.47C69.3429 110.059 69.3549 110.663 69.3666 111.264C69.3811 112.013 69.3957 112.763 69.4102 113.512C69.4161 113.816 69.3573 114.209 69.0718 114.268C69.2063 113.283 69.2013 112.284 69.196 111.289C69.1919 110.515 69.1715 109.685 68.74 109.055Z" fill="#00160A"/>
<path d="M68.0418 132.741C68.224 133.036 68.4062 133.331 68.5884 133.625C68.5782 133.052 68.8295 132.478 69.2604 132.092C69.0523 132.557 68.9904 133.085 69.0852 133.585C69.3615 133.121 69.5496 132.607 69.6371 132.076C69.6736 132.465 69.7102 132.855 69.7468 133.244C70.6603 132.806 71.7048 132.737 72.7191 132.676C73.6868 132.617 74.6544 132.559 75.622 132.5C78.6148 132.32 81.6195 132.139 84.6084 132.374C85.5134 132.446 86.4539 132.569 87.2076 133.067C87.7433 133.421 88.174 134.041 88.0429 134.662C87.859 135.535 86.7822 135.854 85.8884 135.996C83.2316 136.419 80.5592 136.748 77.8783 136.982C74.6313 137.265 71.2264 137.383 68.2562 136.061C67.8024 135.859 67.3309 135.592 67.1395 135.139C66.9481 134.687 67.2258 134.036 67.7239 134.037C67.6324 133.711 67.3907 133.43 67.0799 133.287C67.4509 133.077 67.9994 133.346 68.0524 133.764C68.0488 133.423 68.0453 133.082 68.0418 132.741ZM69.5564 135.689C71.1186 135.91 72.6809 136.132 74.2432 136.353C72.2616 136.489 70.2555 136.269 68.3523 135.71C69.4031 136.25 70.5566 136.597 71.7351 136.727C72.6196 136.824 73.5129 136.8 74.4021 136.763C78.5619 136.592 82.7103 136.153 86.8122 135.451C87.5974 135.317 87.757 134.149 87.2292 133.561C86.7014 132.974 85.8361 132.837 85.0425 132.765C81.2526 132.42 77.4361 132.713 73.6417 133.006C72.1303 133.122 70.6012 133.242 69.1635 133.716C68.6776 133.876 68.1264 134.182 68.117 134.686C68.1053 135.322 68.9171 135.598 69.5564 135.689V135.689ZM67.6662 134.366C67.3607 134.478 67.3436 134.932 67.5482 135.182C67.6887 135.354 67.9023 135.465 68.1253 135.483C67.8221 135.248 67.6981 134.813 67.8328 134.458C67.8107 134.392 67.7343 134.35 67.6662 134.366H67.6662Z" fill="#00160A"/>
<path d="M78.3894 100.917C78.4589 100.889 78.5288 100.983 78.5265 101.071C78.5241 101.159 78.476 101.235 78.4301 101.304C78.288 101.517 78.1174 101.748 77.8905 101.76C77.8897 101.392 78.1 101.037 78.3894 100.917Z" fill="#00160A"/>
<path d="M101.916 110.864C100.989 110.249 100.69 109.044 100.521 107.945C100.069 105 100.03 101.991 100.406 99.0355C100.462 98.5955 100.537 98.1326 100.819 97.7899C101.336 97.1608 102.287 97.1939 103.1 97.232C105.249 97.3326 107.413 97.0785 109.48 96.4829C109.825 96.3835 110.195 96.6201 110.369 96.9342C110.542 97.2484 110.566 97.6206 110.586 97.9789C110.695 99.9219 110.803 101.865 110.912 103.808C111.005 105.462 111.067 107.239 110.182 108.64C109.034 110.456 106.68 111.049 104.541 111.252C103.642 111.337 102.668 111.362 101.916 110.864V110.864ZM102.176 97.5578C101.937 97.5745 101.691 97.6049 101.484 97.7248C101.099 97.948 100.942 98.4175 100.838 98.8504C100.455 100.441 100.366 102.102 100.574 103.725C102.207 103.803 103.847 103.737 105.468 103.528C105.558 103.516 105.653 103.502 105.726 103.447C105.858 103.346 105.866 103.154 105.86 102.988C105.82 101.722 105.719 100.458 105.555 99.2024C105.504 98.8123 105.435 98.3961 105.165 98.1106C104.922 97.8553 104.563 97.7529 104.217 97.6849C103.547 97.5527 102.858 97.5098 102.176 97.5578V97.5578ZM103.972 110.23C104.434 110.197 104.978 110.112 105.186 109.698C105.259 109.552 105.276 109.385 105.292 109.223C105.411 108.033 105.53 106.843 105.649 105.653C105.668 105.463 105.683 105.256 105.578 105.096C105.377 104.792 104.918 104.87 104.567 104.971C103.325 105.33 102.036 105.529 100.742 105.562C100.398 106.433 100.891 107.387 101.015 108.316C101.055 108.617 101.057 108.927 101.166 109.211C101.356 109.711 101.855 110.042 102.374 110.174C102.893 110.305 103.438 110.268 103.972 110.23ZM108.219 108.694C107.563 109.459 106.4 109.768 105.996 110.691C108.567 110.495 110.746 108.023 110.615 105.448C110.487 102.916 110.359 100.383 110.23 97.8506C110.22 97.6533 110.208 97.4479 110.111 97.2756C109.898 96.8959 109.369 96.8317 108.945 96.9299C108.521 97.028 108.119 97.2415 107.683 97.2522C108.936 97.9853 109.078 99.7068 109.074 101.158C109.072 101.816 109.07 102.474 109.069 103.133C109.389 102.822 110.007 103.057 110.116 103.49C110.226 103.922 109.901 104.384 109.476 104.522C108.833 104.732 108.834 105.622 108.867 106.298C108.908 107.145 108.771 108.05 108.219 108.694V108.694ZM107.04 97.4227C106.821 97.395 106.599 97.4273 106.381 97.4595C106.152 97.4933 105.923 97.527 105.695 97.5608C106.418 98.2231 106.793 99.1927 106.953 100.16C107.113 101.128 107.083 102.115 107.13 103.095C107.135 103.181 107.146 103.279 107.217 103.326C107.272 103.364 107.345 103.356 107.411 103.348C107.709 103.31 108.007 103.271 108.305 103.233C108.378 103.224 108.456 103.212 108.511 103.164C108.58 103.103 108.594 103.002 108.604 102.911C108.743 101.593 108.878 100.232 108.489 98.965C108.269 98.2518 107.781 97.5162 107.04 97.4227ZM105.209 110.672C105.619 110.498 106.016 110.229 106.207 109.827C106.345 109.537 106.365 109.207 106.381 108.887C106.478 107.041 106.575 105.194 106.672 103.347C106.773 101.416 106.806 99.273 105.542 97.8094C106.544 101.276 106.152 104.973 105.752 108.56C105.656 109.418 105.367 110.49 104.512 110.611C103.675 110.584 102.838 110.557 102.001 110.53C102.977 111.05 104.19 111.104 105.209 110.672ZM108.562 106.005C108.575 105.649 108.588 105.294 108.601 104.938C108.04 104.91 107.474 104.977 106.934 105.135C106.808 106.468 106.747 107.807 106.749 109.146C106.749 109.173 106.75 109.202 106.761 109.227C106.807 109.323 106.952 109.277 107.041 109.219C107.342 109.021 107.646 108.819 107.882 108.547C108.469 107.871 108.53 106.9 108.562 106.005ZM100.833 105.324C102.138 105.085 103.444 104.846 104.749 104.607C105.065 104.549 105.431 104.504 105.674 104.715C105.741 104.541 105.81 104.356 105.78 104.172C105.75 103.988 105.58 103.813 105.397 103.848C104.054 104.105 102.674 104.169 101.313 104.038C101.004 104.009 100.687 104.207 100.579 104.497C100.471 104.788 100.58 105.144 100.833 105.324ZM109.149 103.377C108.546 103.508 107.943 103.639 107.341 103.769C107.251 103.789 107.154 103.812 107.093 103.88C107.016 103.966 107.018 104.094 107.024 104.208C107.034 104.404 107.044 104.599 107.054 104.795C107.682 104.656 108.31 104.518 108.937 104.379C109.192 104.323 109.463 104.258 109.64 104.067C109.818 103.877 109.835 103.517 109.608 103.39C109.471 103.313 109.302 103.344 109.149 103.377V103.377Z" fill="#00160A"/>
<path d="M92.624 32.3023L92.8263 32.4229C95.7429 34.1795 98.0041 36.3225 101.8 40.5448C109.831 49.4801 117.511 58.7516 124.815 68.3288L125.39 69.0855L125.558 69.3062C128.276 72.9034 129.472 75.2153 129.539 77.9894C129.588 80.0409 128.726 82.0553 127.199 83.6446L127.117 83.7293L127.109 83.7365L127.083 83.7644C126.72 84.1543 126.314 84.5007 125.87 84.7959L125.752 84.8729L125.715 84.8989C123.846 86.1732 121.645 86.7024 119.593 86.3115L119.483 86.2897L119.394 86.2704L119.383 86.3488C117.303 100.062 113.064 113.445 106.87 125.856L106.682 126.231L106.489 126.614L106.378 126.831C105.742 128.064 105.313 128.711 104.651 129.302C103.781 130.078 102.678 130.51 101.317 130.686C100.354 130.81 99.4474 130.809 97.9169 130.722L97.6483 130.706C91.505 130.333 85.3369 130.335 79.1898 130.712L78.6136 130.748L78.1376 130.78L78.068 130.787C77.138 130.886 76.2946 130.957 75.4875 131.001L75.2865 131.012L75.0614 131.022L75.0203 131.025C74.0629 131.111 73.1065 131.205 72.1513 131.308L70.5226 131.492L69.1515 131.65C68.715 131.698 68.3574 131.736 68.017 131.77C64.1213 131.927 61.5615 131.888 60.3378 131.654L60.1712 131.621L60.0099 131.588C55.8502 130.707 52.4004 127.977 51.4968 124.417C48.0918 111 43.3283 97.928 37.3031 85.4658L37.2211 85.2971L37.1813 85.3207C35.7524 86.1303 33.957 85.9318 32.3756 84.9057L32.294 84.8519L32.2112 84.7953L32.192 84.7871C31.6961 84.5673 31.2557 84.1724 30.9416 83.676L30.8976 83.6044L30.8741 83.564L30.8548 83.5406C30.3428 82.9123 29.9639 82.2074 29.7521 81.4733L29.7216 81.363L29.6936 81.2522C29.0154 78.4358 29.8878 75.5337 32.0233 71.8519C35.9105 65.15 40.6874 60.1165 46.3835 57.2962L46.5564 57.2114L46.8671 57.7651C41.8368 60.9938 37.4764 65.262 34.1408 70.222C31.8538 73.6229 30.5964 76.7484 30.5924 79.7218L30.5931 79.8569L30.5949 79.9687L30.6006 79.9579C32.0352 77.1363 34.4326 74.7824 38.2599 71.9901L38.4248 71.8701L38.5784 71.759C42.7605 68.7429 47.3158 65.8982 52.5803 62.9574L53.2865 62.5646C57.1788 60.4097 60.49 58.6919 66.9456 55.4423L73.6832 52.0506C75.533 51.1138 76.9192 50.402 78.4724 49.5927L78.8636 49.3873C82.0267 47.7148 84.426 46.1408 86.3214 44.3601C88.7623 42.067 90.1537 39.5817 90.3598 36.7965C90.5264 34.5465 89.6929 32.4147 88.1002 31.4175C86.5523 30.4483 84.5639 30.5196 81.7951 31.3352C71.8128 34.2755 62.8727 40.6427 56.8307 49.1151C56.4588 49.6366 56.7121 50.1099 56.8307 50.392C57.6065 52.2373 57.132 54.3115 56.2153 56.0902L56.1645 56.1868L55.4453 57.5265L56.0258 54.3209C55.974 49.1151 54.9987 46.2468 52.842 41.9067L52.7514 41.7262L52.6982 41.6226L52.663 41.6919C51.66 43.6199 49.7334 45.1226 47.3829 45.9492L47.2609 45.9914L47.1442 46.0304C45.195 46.6703 43.5135 46.8584 40.0997 46.9508L39.2921 46.9705L39.1955 46.8217C38.6097 45.9199 39.181 44.7966 40.2753 43.91C42.6005 42.0262 45.325 40.6385 48.216 39.8655C49.6753 39.4754 50.761 39.4038 51.765 39.7751C52.0281 39.8724 52.2709 39.9929 52.4954 40.1366L52.5905 40.1996L52.6009 40.2068L52.6264 40.1415L52.7012 40.2789L52.7381 40.3063C53.1923 40.6525 53.5648 41.1061 53.8745 41.6672L53.9318 41.7737L53.9794 41.8661C54.3285 42.5586 54.5428 43.2221 54.8668 44.515L55.0868 45.4095L55.1497 45.6612C55.4293 46.7671 55.6678 47.5163 55.974 48.1503L56.0083 48.2203L56.0258 48.255L56.1051 48.1501C62.1559 40.185 70.5722 34.0402 80.0019 30.703L80.288 30.6027L80.5836 30.5011C84.3066 29.2347 88.7143 29.995 92.624 32.3023ZM76.5444 86.391C72.628 86.5977 68.7889 88.3505 65.9901 91.1867C64.7223 92.4715 63.9062 93.7538 63.6055 95.1072L63.5791 95.2312C63.4033 96.0949 63.4157 96.887 63.5657 98.444L66.7831 130.639C66.8081 130.889 66.8382 131.066 66.8838 131.199L66.8954 131.232L67.1187 131.213L67.1493 131.185C67.5316 130.815 67.7861 130.25 67.8634 129.632L67.8745 129.529L67.8768 129.504C67.929 128.904 67.8683 128.398 67.6569 127.336L67.5971 127.037L67.5075 126.58C66.8654 123.236 66.5577 120.167 66.1763 114.424L66.0564 112.61C65.5624 105.269 65.156 101.857 64.1002 97.7391C63.6236 95.8806 64.1763 93.7726 65.4699 92.099C66.566 90.6811 68.1226 89.5688 70.1387 88.6308C72.5847 87.4929 75.1308 86.8601 77.621 86.8185C79.6313 86.785 81.6257 87.1009 84.3968 87.7887L84.6641 87.856C86.9448 88.4383 88.2931 89.006 89.4381 90.0496C90.5889 91.0986 91.3322 92.5057 92.0185 94.59C93.5383 99.2055 94.1212 104.293 94.0365 110.422L94.0241 111.132C93.9831 113.097 93.8919 114.931 93.7008 117.898L93.4246 122.096C93.2938 124.145 93.2274 125.406 93.1734 126.89L93.1676 127.07C93.1453 127.881 93.1908 128.314 93.3798 128.744C93.5661 129.168 93.9302 129.483 94.3038 129.566L94.3556 129.575L94.5825 114.186C94.666 107.921 94.61 104.897 94.2499 101.256L94.2383 101.139C94.0439 99.2017 93.7884 97.605 93.4053 96.1111C93.2111 95.3541 92.9788 94.6069 92.7095 93.8733C91.948 91.7993 91.0174 90.2753 89.7366 89.2409C88.2947 88.0764 86.7383 87.587 83.5338 87.0499L83.2467 87.0024C79.9171 86.4574 78.4047 86.2928 76.5444 86.391ZM68.4012 130.196L68.3992 130.204C68.3109 130.538 68.1768 130.853 67.9999 131.133L68.6778 131.062C68.873 131.041 69.0831 131.017 69.3157 130.991L70.4527 130.86C70.3676 130.849 70.2827 130.838 70.1981 130.826L69.9932 130.796L69.7284 130.756L69.7225 130.466L69.6937 130.482C69.4395 130.623 69.1583 130.715 68.8692 130.75L68.7968 130.757L68.5099 130.782L68.4012 130.196ZM58.8876 130.45L58.8669 130.478C58.8344 130.52 58.7977 130.558 58.7575 130.593C59.2068 130.741 59.6693 130.866 60.1416 130.966C60.2937 130.998 60.4466 131.028 60.6004 131.056C60.0453 130.904 59.5009 130.714 58.9723 130.487L58.8876 130.45ZM76.6579 72.1898C63.4222 72.9174 49.8485 76.4139 36.1253 82.332L35.6511 82.5375L36.1374 82.7661C37.2471 83.2876 37.8756 84.1795 38.7027 85.9933L40.0078 88.888C42.4184 94.2543 43.8263 97.52 45.2686 101.162C47.3033 106.301 48.8685 110.967 50.0334 115.53L50.6664 118.057C50.7467 118.374 50.8202 118.659 50.8932 118.937L50.9899 119.301C51.6645 121.816 52.305 123.647 53.1415 125.269C54.2123 127.345 55.5478 128.901 57.2732 129.961C57.7512 130.255 58.3349 130.237 58.3933 130.007L58.3971 129.986L58.4462 129.542L58.8492 129.733C60.9544 130.73 63.3604 131.082 65.6637 130.737L65.7894 130.718L62.6269 99.2465L62.5969 98.9455C62.3948 96.8936 62.3968 95.7282 62.7259 94.485C63.1614 92.8392 64.21 91.3299 65.7541 89.9165C68.445 87.4534 71.9313 85.8757 75.5578 85.4801C77.9866 85.2151 80.4413 85.4249 83.8485 86.0514L84.1457 86.1069C86.7828 86.6075 88.4075 87.138 89.8846 88.1467C91.7735 89.4366 93.075 91.3744 93.9192 93.9144C94.59 95.9325 94.9485 98.1934 95.1634 101.141C95.8276 110.25 95.8276 119.406 95.1635 128.515C95.1007 129.376 96.235 129.957 97.7513 130.028L97.8274 130.031L98.0409 130.038L98.2989 130.045C100.928 130.111 102.432 129.84 103.634 128.843C104.291 128.297 104.73 127.648 105.409 126.355L105.463 126.251C111.591 114.492 115.804 101.738 117.888 88.6423L117.95 88.2454C118.177 86.7876 118.422 85.7631 118.82 84.8499C119.332 83.6777 120.056 82.8573 121.061 82.4429L121.143 82.4102L121.24 82.3728L121.197 82.3399C120.363 81.7048 119.367 81.1106 118.065 80.4344L117.776 80.2854C105.66 74.0892 91.3812 71.3804 76.6579 72.1898ZM77.264 87.822C75.1443 87.9058 72.9581 88.4822 70.7391 89.4857C67.5421 90.9314 65.3866 93.0462 65.0652 95.5638C65.0445 95.7256 65.0312 95.8907 65.0251 96.0595L65.0216 96.1831C65.0073 96.899 65.0993 97.5462 65.3529 98.7255L65.5493 99.6177C66.1944 102.581 66.5418 105.476 66.8867 110.016L67.1498 113.59C67.7105 121.093 68.1621 125.327 68.9986 129.927L69.0252 130.072L69.0685 130.06C69.3231 129.983 69.5593 129.842 69.7466 129.654L69.7924 129.606L70.329 129.017L70.3532 130.205L70.4878 130.224C71.8249 130.4 73.2244 130.452 74.7516 130.398L75.0062 130.388L75.4789 130.347C76.1227 130.292 76.7669 130.241 77.4108 130.194L78.069 130.147L78.5906 130.09C79.2729 130.013 79.9257 129.931 81.1728 129.769L82.2567 129.63C85.7095 129.195 87.5067 129.047 89.5884 129.09L89.8699 129.097L90.6661 129.124L90.8802 129.129C91.4334 129.136 91.8499 129.107 92.2286 129.022L92.264 129.013L92.2578 128.563C92.2342 126.376 92.3061 124.166 92.4772 121.096L92.6231 118.628L92.7612 116.329C92.8679 114.501 92.9221 113.376 92.9665 112.052C93.1954 105.213 92.7084 99.946 91.1222 95.1431C90.401 92.9594 89.5791 91.4861 88.347 90.4922C87.2801 89.6315 86.0704 89.189 83.8065 88.6681L83.4762 88.5928C80.8166 87.9925 79.0738 87.7504 77.264 87.822ZM94.9896 129.716L94.9864 129.931L95.2523 129.943C95.1562 129.872 95.0684 129.797 94.9896 129.716ZM92.9037 129.21L92.9092 129.488L92.6803 129.559C92.1502 129.723 91.6163 129.775 90.8685 129.764L90.5875 129.758L89.9454 129.736L89.8517 129.733C88.779 129.702 87.8012 129.721 86.652 129.803C88.9326 129.775 91.2135 129.799 93.4924 129.875C93.2584 129.702 93.0553 129.474 92.9037 129.21ZM121.716 82.759L121.448 82.9611C120.736 83.4969 120.164 84.2184 119.801 85.0322L119.774 85.0942L119.786 85.0969C120.724 85.2937 121.271 85.3063 121.789 85.0924L121.838 85.0717C122.515 84.773 122.841 83.8445 122.421 83.4163C122.22 83.2119 122.013 83.0163 121.795 82.8265L121.716 82.759ZM36.0176 84.9562L35.6932 85.0681C35.5573 85.1138 35.4338 85.1522 35.3201 85.1829C35.8463 85.1714 36.3519 85.0455 36.8107 84.7986C36.627 84.7785 36.3913 84.8302 36.0176 84.9562ZM90.3452 32.2738L90.3532 32.2918C91.6448 35.3147 91.4979 38.9312 89.9142 41.8197C88.3876 44.604 86.0402 46.476 81.6711 48.93L80.9048 49.3564C77.6506 51.1567 74.716 52.6807 69.431 55.3424L64.0672 58.0392C58.5273 60.8337 55.5476 62.3956 52.0441 64.365C46.6792 67.3807 42.1138 70.3129 37.9817 73.4742L37.6849 73.7025C35.1477 75.665 33.5284 77.2104 32.2644 79.0426C31.4076 80.2846 31.0009 81.3851 31.1386 82.4211C31.1691 82.6502 31.2405 82.8812 31.3467 83.0992L31.3881 83.1804L31.3994 83.201L31.4076 83.211C31.6991 83.5573 32.0322 83.8719 32.3918 84.1418L32.5005 84.2214L32.5188 84.2341L32.5543 84.2481C32.7396 84.3163 32.9271 84.3486 33.1125 84.3433L33.1236 84.3424L33.1193 84.2948C33.0275 83.1053 34.1124 82.0785 35.7452 81.3642L35.8234 81.3305C50.4415 75.0909 64.8346 71.5412 78.8082 71.0908C94.2969 70.5916 109.226 74.0204 121.532 81.2552C121.908 81.4761 122.228 81.6826 122.5 81.8879L122.683 82.0322C123.191 82.4515 123.502 82.8787 123.672 83.4256C123.846 83.987 123.705 84.6223 123.377 85.0901L123.356 85.1182C124.004 85.0241 124.647 84.7913 125.251 84.434L125.347 84.3766L125.395 84.346L125.473 84.2922C125.813 84.0523 126.136 83.7883 126.437 83.5049L126.564 83.3823L126.64 83.3064L126.671 83.2729C127.117 82.782 127.48 82.2259 127.738 81.637C128.653 79.5458 128.519 76.9507 127.502 74.4548L127.428 74.2765C126.647 72.4161 125.626 70.9064 123.449 68.1164C117.501 60.4926 111.217 52.8575 104.565 45.1517L103.92 44.4057C101.121 41.1726 99.3576 39.2614 97.3807 37.4212L97.2864 37.3336C95.0111 35.2255 92.778 33.5696 90.44 32.324L90.3452 32.2738ZM35.2752 82.7107L35.2207 82.738C34.7979 82.9506 34.5585 83.1349 34.3764 83.3952C34.1057 83.7819 34.149 84.344 34.4576 84.5349C34.6873 84.6769 34.9335 84.6541 35.5203 84.4552L35.6731 84.4022C36.0002 84.2872 36.2606 84.2089 36.4849 84.1731L36.5061 84.1699L36.3809 84.0073C36.2322 83.817 36.0792 83.6301 35.9221 83.4466L35.7637 83.2643L35.2752 82.7107ZM48.6528 40.8921L48.5769 40.9079L48.5854 40.9922C48.6491 41.6401 48.2468 42.1784 47.5495 42.6615L47.4872 42.704C46.4688 43.3882 45.3351 43.8998 44.1483 44.2109C43.181 44.4644 42.4167 44.4754 41.7648 44.1218C41.6943 44.0836 41.5316 44.1435 41.3268 44.3135C40.8575 44.7033 40.4459 45.1625 40.1092 45.6712L40.0397 45.7784L42.4525 45.7636C43.2641 45.7548 43.7177 45.735 44.2352 45.6797L44.293 45.6734C47.1119 45.3611 49.7905 43.9065 51.5874 41.7123L51.663 41.6176C51.8266 41.4064 51.903 41.2593 51.9207 41.1103C51.9389 40.9579 51.8491 40.808 51.764 40.7959C50.7318 40.6489 49.675 40.6849 48.6528 40.8921ZM48.2144 41.0191C45.611 41.2431 43.1863 42.5593 42.1138 43.8984C42.1138 43.9944 42.199 44.0546 42.3491 44.082C42.6985 43.653 43.1863 43.2272 43.7734 42.8396C43.9757 43.4393 45.2348 43.1859 46.1104 42.9623C47.2821 42.3244 48.2144 41.5387 48.2144 41.0191ZM89.0613 31.3469L89.0847 31.3675C89.1513 31.4275 89.2162 31.4894 89.2796 31.5531L89.1921 31.3927L89.0847 31.3549L89.0613 31.3469Z" fill="#00160A"/>
<path d="M87.9484 83.7752C93.0277 86.4712 95.7018 91.1045 95.116 91.3719C94.5302 91.6393 89.7661 83.2783 77.985 84.2551C62.7907 84.7815 60.9112 95.2857 60.3014 95.0786C59.6917 94.8716 62.0564 88.1792 67.6985 84.608C73.3406 81.0368 82.8692 81.0792 87.9484 83.7752Z" fill="#E7EAEE"/>
</svg>
