<svg width="128" height="128" viewBox="0 0 128 128" fill="none" xmlns="http://www.w3.org/2000/svg">
<circle cx="64" cy="64" r="64" fill="#65CFBB"/>
<path d="M45.4387 28.7542C48.4309 28.7542 51.1879 30.377 52.6407 32.9934L57.6786 42.0685C58.9978 44.445 59.0599 47.3195 57.8442 49.7504L53.6849 58.0656L53.8333 58.5209L54.1388 59.3698C54.9228 61.4395 56.0139 63.5127 57.4485 65.4322C58.0805 66.2779 58.7677 67.0763 59.5121 67.8207C60.2475 68.556 61.0348 69.235 61.868 69.8595C63.7881 71.299 65.8615 72.3908 67.9312 73.1727C68.3355 73.3254 68.7051 73.4544 69.0339 73.5615L69.2331 73.6226L77.5564 69.4654C79.7682 68.3593 82.3466 68.3108 84.5832 69.3041L85.2433 69.6334L94.3439 74.693C96.958 76.1461 98.5782 78.9018 98.5782 81.8926V92.3407C98.5782 100.476 90.8773 106.309 83.16 103.704C67.7351 98.5005 54.07 91.5021 44.9507 82.3824C35.8311 73.2629 28.8322 59.5982 23.6274 44.1731C21.0234 36.4555 26.8568 28.7542 34.9923 28.7542H45.4387ZM45.4389 36.9915H34.9923C32.3873 36.9915 30.665 39.2652 31.4325 41.5396C36.2657 55.8636 42.7592 68.5417 50.7753 76.5577C58.7912 84.5738 71.4695 91.0672 85.7937 95.9005C88.0678 96.6685 90.3415 94.9458 90.3415 92.3407V81.8926L81.2406 76.8328L71.5351 81.6855C70.7259 82.0901 69.806 82.217 68.9174 82.0466C65.7813 81.4451 61.3627 79.7759 56.9268 76.4503C55.7874 75.5961 54.7045 74.6624 53.6875 73.6454C52.6583 72.6162 51.7139 71.519 50.8504 70.3636C47.5421 65.9372 45.8723 61.5292 45.2641 58.402C45.0906 57.5102 45.2168 56.5862 45.6231 55.7737L50.4766 46.0665L45.4389 36.9915ZM73.4956 23C75.6078 23 77.3486 24.59 77.5866 26.6383L77.6142 27.1186L77.609 44.2151L97.4118 25.1794C99.0517 23.6028 101.658 23.6539 103.236 25.2936C104.691 26.8071 104.759 29.1451 103.471 30.7359L103.121 31.1171L83.7224 49.7684L100.267 49.7712C102.379 49.7712 104.119 51.3612 104.357 53.4096L104.385 53.8899C104.385 56.0021 102.795 57.7429 100.747 57.9808L100.267 58.0085H73.4956L73.3338 58.0053C73.2492 58.002 73.1646 57.9961 73.0802 57.9876L73.4956 58.0085C73.2626 58.0085 73.0341 57.9892 72.8117 57.952C72.7612 57.9431 72.7075 57.9331 72.6541 57.9221C72.5301 57.8966 72.4119 57.8663 72.2958 57.831C72.2623 57.8206 72.226 57.809 72.1897 57.7968C72.0753 57.7589 71.9651 57.7166 71.8573 57.6698C71.8142 57.6512 71.7706 57.6314 71.7273 57.6108C71.6403 57.5692 71.555 57.5249 71.4717 57.4777C71.1788 57.3131 70.9002 57.1077 70.6457 56.8633C70.6165 56.8353 70.5872 56.8065 70.5584 56.7772C70.5491 56.7677 70.5379 56.7561 70.5267 56.7445L70.4377 56.6491C70.3612 56.5643 70.2881 56.4762 70.2187 56.3853L70.5267 56.7445C70.366 56.5773 70.2222 56.4002 70.0952 56.215C70.0363 56.1284 69.9802 56.0395 69.9276 55.9485C69.895 55.8927 69.8637 55.8355 69.8339 55.7777C69.6116 55.3469 69.463 54.8723 69.4046 54.3701C69.3957 54.2913 69.3891 54.2168 69.3846 54.1422L69.3769 53.8899V27.1186C69.3769 24.844 71.2209 23 73.4956 23Z" fill="black"/>
</svg>
