<svg width="128" height="128" viewBox="0 0 128 128" fill="none" xmlns="http://www.w3.org/2000/svg">
<circle cx="64" cy="64" r="64" fill="#65CFBB"/>
<path fill-rule="evenodd" clip-rule="evenodd" d="M14 33.4167C14 30.9774 15.9774 29 18.4167 29H82.4583C84.8976 29 86.875 30.9774 86.875 33.4167V44.4583H101.387C102.771 44.4583 104.074 45.107 104.909 46.2109L119.106 64.9817C119.687 65.7487 120 66.6842 120 67.6459V86.4167C120 88.8559 118.022 90.8333 115.583 90.8333H103.788C101.968 95.9796 97.061 99.6664 91.2917 99.6664C85.5225 99.6664 80.6147 95.9796 78.7956 90.8333H52.996C51.177 95.9796 46.269 99.6664 40.5 99.6664C34.7309 99.6664 29.8229 95.9796 28.004 90.8333H18.4167C15.9774 90.8333 14 88.8559 14 86.4167V33.4167ZM28.004 82C29.8229 76.8537 34.7309 73.1667 40.5 73.1667C46.269 73.1667 51.177 76.8537 52.996 82H78.0417V37.8333H22.8334V82H28.004ZM86.875 73.9206V53.2917H99.1892L111.167 69.128V82H103.788C101.968 76.8537 97.061 73.1667 91.2917 73.1667C89.7431 73.1667 88.2564 73.4324 86.875 73.9206ZM40.5 82C38.0607 82 36.0833 83.9775 36.0833 86.4167C36.0833 88.8558 38.0607 90.8333 40.5 90.8333C42.9392 90.8333 44.9167 88.8558 44.9167 86.4167C44.9167 83.9775 42.9392 82 40.5 82ZM91.2917 82C88.8525 82 86.875 83.9775 86.875 86.4167C86.875 88.8558 88.8525 90.8333 91.2917 90.8333C93.7308 90.8333 95.7083 88.8558 95.7083 86.4167C95.7083 83.9775 93.7308 82 91.2917 82Z" fill="black"/>
</svg>
